<svg version="1.1" id="Слой_1" xmlns="http://www.w3.org/2000/svg" x="0" y="0" viewBox="0 0 180 180" xml:space="preserve"><style>.st0{fill:#fff}</style><path class="st0" d="M.5.5h179v179H.5z"/><path class="st0" d="M179 1v178H1V1h178m1-1H0v180h180V0z"/><path d="M26.22 25.86h18.42c4.8 0 8.61 1.15 11.43 3.45 2.82 2.3 4.23 5.73 4.23 10.29 0 4.48-1.4 7.87-4.2 10.17-2.8 2.3-6.46 3.45-10.98 3.45h-9.6v15.36h-9.3V25.86zm9.3 7.68v12.3h8.34c4.88 0 7.32-2.04 7.32-6.12 0-4.12-2.42-6.18-7.26-6.18h-8.4zm58.8 4.08v30.96h-8.1V64.2c-2.4 3.52-5.76 5.28-10.08 5.28-3.4 0-6.05-.93-7.95-2.79-1.9-1.86-2.85-4.61-2.85-8.25V37.62h8.58v17.7c0 1.16.05 2.09.15 2.79.1.7.31 1.41.63 2.13s.85 1.25 1.59 1.59c.74.34 1.69.51 2.85.51 4.48 0 6.72-2.92 6.72-8.76V37.62h8.46zm26.64-.54v7.86c-1.2-.24-2.3-.36-3.3-.36-2.8 0-4.86.89-6.18 2.67-1.32 1.78-1.98 4.17-1.98 7.17v14.16h-8.52V37.62h8.1v5.7c2.04-4.28 5.38-6.42 10.02-6.42.4 0 1.02.06 1.86.18zm32.34 21.9c-.96 3.32-2.73 5.9-5.31 7.74-2.58 1.84-5.65 2.76-9.21 2.76-4.76 0-8.59-1.48-11.49-4.44-2.9-2.96-4.35-6.88-4.35-11.76 0-4.8 1.46-8.76 4.38-11.88 2.92-3.12 6.64-4.68 11.16-4.68 4.68 0 8.4 1.59 11.16 4.77 2.76 3.18 4.14 7.49 4.14 12.93v.84h-22.2c.04 2.68.69 4.72 1.95 6.12 1.26 1.4 3.03 2.1 5.31 2.1 3 0 5.1-1.5 6.3-4.5h8.16zm-8.16-9.12c-.2-2.04-.86-3.71-1.98-5.01-1.12-1.3-2.68-1.95-4.68-1.95-1.88 0-3.44.62-4.68 1.86-1.24 1.24-1.98 2.94-2.22 5.1h13.56zm-141.99 57h9.78l9.6 30 9.72-30h9.72l-14.22 42.72H17.13L3.15 106.86zm50.28 0v7.2h-8.52v-7.2h8.52zm0 11.76v30.96h-8.52v-30.96h8.52zm32.88 9h-7.92c-.24-1.56-.83-2.66-1.77-3.3-.94-.64-2.31-.96-4.11-.96-1.52 0-2.7.27-3.54.81s-1.26 1.29-1.26 2.25c0 1.12.48 1.9 1.44 2.34.96.44 2.68.92 5.16 1.44.44.08.76.14.96.18 1.44.28 2.59.53 3.45.75.86.22 1.91.58 3.15 1.08 1.24.5 2.2 1.06 2.88 1.68.68.62 1.28 1.45 1.8 2.49.52 1.04.78 2.24.78 3.6 0 3.24-1.26 5.8-3.78 7.68-2.52 1.88-5.98 2.82-10.38 2.82-4.2 0-7.66-.9-10.38-2.7-2.72-1.8-4.1-4.56-4.14-8.28h8.1c.28 3.44 2.48 5.16 6.6 5.16 1.72 0 3.09-.35 4.11-1.05 1.02-.7 1.53-1.63 1.53-2.79s-.46-1.98-1.38-2.46c-.92-.48-2.62-1-5.1-1.56-.2-.04-.36-.08-.48-.12-.28-.08-.9-.22-1.86-.42-.96-.2-1.63-.35-2.01-.45-.38-.1-1-.27-1.86-.51-.86-.24-1.49-.47-1.89-.69-.4-.22-.93-.5-1.59-.84-.66-.34-1.15-.71-1.47-1.11-.32-.4-.67-.87-1.05-1.41-.38-.54-.64-1.15-.78-1.83-.14-.68-.21-1.42-.21-2.22 0-3.04 1.18-5.38 3.54-7.02 2.36-1.64 5.7-2.46 10.02-2.46 3.88 0 7.06.8 9.54 2.4 2.48 1.6 3.78 4.1 3.9 7.5zm14.82-20.76v7.2h-8.52v-7.2h8.52zm0 11.76v30.96h-8.52v-30.96h8.52zm21.96-.9c4.76 0 8.59 1.5 11.49 4.5s4.35 6.96 4.35 11.88c0 4.96-1.45 8.94-4.35 11.94s-6.77 4.5-11.61 4.5-8.72-1.5-11.64-4.5-4.38-6.98-4.38-11.94c0-4.92 1.48-8.88 4.44-11.88 2.96-3 6.86-4.5 11.7-4.5zm-.24 6.48c-2.28 0-4.08.88-5.4 2.64-1.32 1.76-1.98 4.18-1.98 7.26 0 3.16.66 5.62 1.98 7.38s3.16 2.64 5.52 2.64c2.36 0 4.19-.89 5.49-2.67 1.3-1.78 1.95-4.25 1.95-7.41 0-3.08-.67-5.49-2.01-7.23-1.34-1.74-3.19-2.61-5.55-2.61zm50.82 25.38h-8.64v-18.06c0-2.2-.36-3.87-1.08-5.01-.72-1.14-2.12-1.71-4.2-1.71-4.48 0-6.72 2.72-6.72 8.16v16.62h-8.46v-30.96h8.1v4.32c2.56-3.44 5.98-5.16 10.26-5.16 3.32 0 5.94.96 7.86 2.88s2.88 4.66 2.88 8.22v20.7z" fill="#0b0b0b"/></svg>