<svg version="1.1" id="Слой_1" xmlns="http://www.w3.org/2000/svg" x="0" y="0" viewBox="0 0 32 32" xml:space="preserve"><style>.st0{fill:#fff}</style><path class="st0" d="M.5.5h31v31H.5z"/><path class="st0" d="M31 1v30H1V1h30m1-1H0v32h32V0z"/><path d="M8.36 4.57h8.9c2.32 0 4.16.56 5.52 1.67 1.36 1.11 2.04 2.77 2.04 4.97 0 2.17-.68 3.8-2.03 4.92-1.35 1.11-3.12 1.67-5.31 1.67h-4.64v7.42h-4.5V4.57zm4.49 3.72v5.94h4.03c2.36 0 3.54-.99 3.54-2.96 0-1.99-1.17-2.99-3.51-2.99h-4.06z" fill="#0b0b0b"/></svg>