<svg xmlns="http://www.w3.org/2000/svg" width="337.185" height="885.095"><path d="M85.114 559.751a11.285 11.285 0 10-15.56-3.55 11.3 11.3 0 0015.56 3.55zm-22.6-35.95a11.285 11.285 0 10-15.56-3.55 11.28 11.28 0 0015.56 3.55zm-22.61-35.96a11.285 11.285 0 10-15.56-3.55 11.28 11.28 0 0015.56 3.55zm-22.61-35.96a11.285 11.285 0 10-15.56-3.55 11.28 11.28 0 0015.56 3.55zm135.65 215.74a11.285 11.285 0 10-15.56-3.55 11.3 11.3 0 0015.56 3.55zm-22.6-35.95a11.285 11.285 0 10-15.56-3.55 11.28 11.28 0 0015.56 3.55zm-22.61-35.96a11.285 11.285 0 10-15.56-3.55 11.28 11.28 0 0015.56 3.55zm112.99 179.78a11.285 11.285 0 10-15.56-3.55 11.3 11.3 0 0015.56 3.55zm-22.61-35.95a11.285 11.285 0 10-15.56-3.55 11.28 11.28 0 0015.56 3.55zm-22.6-35.96a11.285 11.285 0 10-15.56-3.55 11.28 11.28 0 0015.56 3.55zm113.04 179.78a11.285 11.285 0 10-15.56-3.55 11.3 11.3 0 0015.56 3.55zm-22.61-35.95a11.285 11.285 0 10-15.56-3.55 11.28 11.28 0 0015.56 3.55zm-22.6-35.96a11.285 11.285 0 10-15.56-3.55 11.28 11.28 0 0015.56 3.55zm-146.04-507.22a11.286 11.286 0 101.99 15.84 11.284 11.284 0 00-1.99-15.84zm-26.05 33.54a11.282 11.282 0 101.99 15.83 11.266 11.266 0 00-1.99-15.83zm-26.06 33.54a11.282 11.282 0 101.99 15.83 11.266 11.266 0 00-1.99-15.83zm-26.06 33.54a11.282 11.282 0 101.99 15.83 11.266 11.266 0 00-1.99-15.83zm156.85-201.24a11.286 11.286 0 101.99 15.84 11.284 11.284 0 00-1.99-15.84zm-26.06 33.54a11.286 11.286 0 101.99 15.84 11.266 11.266 0 00-1.99-15.84zm-26.06 33.54a11.282 11.282 0 101.99 15.83 11.266 11.266 0 00-1.99-15.83zm130.29-167.7a11.286 11.286 0 101.99 15.84 11.284 11.284 0 00-1.99-15.84zm-26.06 33.54a11.282 11.282 0 101.99 15.83 11.266 11.266 0 00-1.99-15.83zm-26.06 33.54a11.282 11.282 0 101.99 15.83 11.266 11.266 0 00-1.99-15.83zm130.79-167.7a11.286 11.286 0 101.99 15.84 11.284 11.284 0 00-1.99-15.84zm-26.06 33.54a11.282 11.282 0 102 15.83 11.266 11.266 0 00-2-15.83zm-26.05 33.54a11.282 11.282 0 101.99 15.83 11.266 11.266 0 00-1.99-15.83z" fill="#f1f1f5"/></svg>