<svg xmlns="http://www.w3.org/2000/svg" viewBox="0 0 1920 1080"><path d="M1464.99 394.58c-4.41-4.4-11.55-4.4-15.96 0s-4.41 11.55 0 15.96c4.41 4.4 11.55 4.4 15.96 0 4.41-4.41 4.41-11.56 0-15.96zm-30.03 30.03c-4.41-4.41-11.55-4.41-15.96 0-4.41 4.4-4.41 11.55 0 15.96 4.41 4.4 11.55 4.4 15.96 0 4.41-4.41 4.41-11.56 0-15.96zm-30.03 30.03c-4.41-4.41-11.55-4.41-15.96 0-4.41 4.4-4.41 11.55 0 15.95 4.4 4.41 11.55 4.41 15.96 0 4.41-4.4 4.41-11.54 0-15.95zm-30.03 30.03c-4.41-4.41-11.55-4.41-15.96 0-4.41 4.4-4.41 11.55 0 15.95 4.41 4.41 11.55 4.41 15.96 0 4.4-4.4 4.4-11.54 0-15.95zm180.69-180.13c-4.41-4.4-11.55-4.4-15.96 0s-4.41 11.55 0 15.96c4.41 4.4 11.55 4.4 15.96 0 4.41-4.41 4.41-11.55 0-15.96zm-30.03 30.03c-4.41-4.41-11.55-4.41-15.96 0-4.41 4.4-4.41 11.55 0 15.96 4.41 4.4 11.55 4.4 15.96 0 4.4-4.41 4.4-11.55 0-15.96zm-30.03 30.04c-4.41-4.41-11.55-4.41-15.96 0-4.41 4.4-4.41 11.55 0 15.95 4.4 4.41 11.55 4.41 15.96 0 4.4-4.4 4.4-11.55 0-15.95zm150.15-150.17c-4.41-4.4-11.55-4.4-15.96 0s-4.41 11.55 0 15.96c4.41 4.4 11.55 4.4 15.96 0 4.41-4.41 4.41-11.55 0-15.96zm-30.03 30.04c-4.41-4.41-11.55-4.41-15.96 0-4.41 4.4-4.41 11.55 0 15.96 4.41 4.4 11.55 4.4 15.96 0 4.41-4.41 4.41-11.56 0-15.96zm-30.03 30.03c-4.41-4.41-11.55-4.41-15.96 0-4.41 4.4-4.41 11.55 0 15.95 4.4 4.41 11.55 4.41 15.96 0 4.41-4.4 4.41-11.55 0-15.95zm150.66-150.1c-4.41-4.4-11.55-4.4-15.96 0s-4.41 11.55 0 15.96c4.41 4.4 11.55 4.4 15.96 0 4.41-4.41 4.41-11.56 0-15.96zm-30.03 30.03c-4.41-4.41-11.55-4.41-15.96 0-4.41 4.4-4.41 11.55 0 15.96 4.41 4.4 11.55 4.4 15.96 0 4.4-4.41 4.4-11.55 0-15.96zm-30.03 30.04c-4.41-4.41-11.55-4.41-15.96 0-4.41 4.4-4.41 11.55 0 15.95 4.4 4.41 11.55 4.41 15.96 0 4.4-4.4 4.4-11.55 0-15.95zm-46.55 571.66c-4.4 4.41-4.4 11.55 0 15.96s11.55 4.41 15.96 0c4.4-4.41 4.4-11.55 0-15.96-4.41-4.41-11.56-4.41-15.96 0zm30.03 30.03c-4.41 4.41-4.41 11.55 0 15.96 4.4 4.41 11.55 4.41 15.96 0 4.4-4.41 4.4-11.55 0-15.96-4.41-4.41-11.56-4.41-15.96 0zm30.03 30.03c-4.41 4.41-4.41 11.55 0 15.96 4.4 4.41 11.55 4.41 15.95 0 4.41-4.4 4.41-11.55 0-15.96-4.4-4.41-11.54-4.41-15.95 0zm30.03 30.03c-4.41 4.41-4.41 11.55 0 15.96 4.4 4.41 11.55 4.41 15.95 0 4.41-4.41 4.41-11.55 0-15.96-4.4-4.4-11.54-4.4-15.95 0zm-180.13-180.69c-4.4 4.41-4.4 11.55 0 15.96s11.55 4.41 15.96 0c4.4-4.41 4.4-11.55 0-15.96-4.41-4.4-11.55-4.4-15.96 0zm30.03 30.03c-4.41 4.41-4.41 11.55 0 15.96 4.4 4.41 11.55 4.41 15.96 0 4.4-4.41 4.4-11.55 0-15.96-4.41-4.4-11.55-4.4-15.96 0zm30.04 30.04c-4.41 4.41-4.41 11.55 0 15.96 4.4 4.41 11.55 4.41 15.95 0 4.41-4.4 4.41-11.55 0-15.96-4.4-4.41-11.55-4.41-15.95 0zm-150.17-150.16c-4.4 4.41-4.4 11.55 0 15.96s11.55 4.41 15.96 0c4.4-4.41 4.4-11.55 0-15.96-4.41-4.41-11.55-4.41-15.96 0zm30.04 30.03c-4.41 4.41-4.41 11.55 0 15.96 4.4 4.41 11.55 4.41 15.96 0 4.4-4.41 4.4-11.55 0-15.96-4.41-4.41-11.56-4.41-15.96 0zm30.03 30.03c-4.41 4.41-4.41 11.55 0 15.96 4.4 4.41 11.55 4.41 15.95 0 4.41-4.4 4.41-11.55 0-15.96-4.4-4.41-11.54-4.41-15.95 0zm-120.07-120.63c-4.41 4.41-4.41 11.55 0 15.96 4.4 4.41 11.55 4.41 15.96 0 4.4-4.41 4.4-11.55 0-15.96-4.41-4.4-11.55-4.4-15.96 0zm30.04 30.04c-4.41 4.41-4.41 11.55 0 15.96 4.4 4.41 11.55 4.41 15.95 0 4.41-4.4 4.41-11.55 0-15.96-4.4-4.41-11.55-4.41-15.95 0z" fill="#f1f1f5"/></svg>