<svg xmlns="http://www.w3.org/2000/svg" width="383.955" height="744.388"><g data-name="Сгруппировать 127"><g data-name="Сгруппировать 126"><g data-name="Сгруппировать 116"><g data-name="Сгруппировать 109"><g data-name="Сгруппировать 108" fill="#f1f1f5"><path data-name="Контур 177" d="M109.357 273.47a11.285 11.285 0 100 15.96 11.3 11.3 0 000-15.96z"/><path data-name="Контур 178" d="M79.327 303.5a11.285 11.285 0 100 15.96 11.28 11.28 0 000-15.96z"/><path data-name="Контур 179" d="M49.297 333.53a11.282 11.282 0 100 15.95 11.28 11.28 0 000-15.95z"/><path data-name="Контур 180" d="M19.267 363.56a11.282 11.282 0 100 15.95 11.28 11.28 0 000-15.95z"/></g></g><g data-name="Сгруппировать 111"><g data-name="Сгруппировать 110" fill="#f1f1f5"><path data-name="Контур 181" d="M199.957 183.43a11.285 11.285 0 100 15.96 11.3 11.3 0 000-15.96z"/><path data-name="Контур 182" d="M169.927 213.46a11.285 11.285 0 100 15.96 11.28 11.28 0 000-15.96z"/><path data-name="Контур 183" d="M139.897 243.5a11.282 11.282 0 100 15.95 11.28 11.28 0 000-15.95z"/></g></g><g data-name="Сгруппировать 113"><g data-name="Сгруппировать 112" fill="#f1f1f5"><path data-name="Контур 184" d="M290.047 93.33a11.285 11.285 0 100 15.96 11.3 11.3 0 000-15.96z"/><path data-name="Контур 185" d="M260.017 123.37a11.285 11.285 0 100 15.96 11.28 11.28 0 000-15.96z"/><path data-name="Контур 186" d="M229.987 153.4a11.282 11.282 0 100 15.95 11.28 11.28 0 000-15.95z"/></g></g><g data-name="Сгруппировать 115"><g data-name="Сгруппировать 114" fill="#f1f1f5"><path data-name="Контур 187" d="M380.647 3.3a11.285 11.285 0 100 15.96 11.3 11.3 0 000-15.96z"/><path data-name="Контур 188" d="M350.617 33.33a11.285 11.285 0 100 15.96 11.28 11.28 0 000-15.96z"/><path data-name="Контур 189" d="M320.587 63.37a11.282 11.282 0 100 15.95 11.28 11.28 0 000-15.95z"/></g></g></g><g data-name="Сгруппировать 125"><g data-name="Сгруппировать 118"><g data-name="Сгруппировать 117" fill="#f1f1f5"><path data-name="Контур 190" d="M274.037 635.03a11.285 11.285 0 1015.96 0 11.3 11.3 0 00-15.96 0z"/><path data-name="Контур 191" d="M304.067 665.06a11.285 11.285 0 1015.96 0 11.28 11.28 0 00-15.96 0z"/><path data-name="Контур 192" d="M334.097 695.09a11.282 11.282 0 1015.95 0 11.28 11.28 0 00-15.95 0z"/><path data-name="Контур 193" d="M364.127 725.12a11.282 11.282 0 1015.95 0 11.28 11.28 0 00-15.95 0z"/></g></g><g data-name="Сгруппировать 120"><g data-name="Сгруппировать 119" fill="#f1f1f5"><path data-name="Контур 194" d="M183.997 544.43a11.285 11.285 0 1015.96 0 11.3 11.3 0 00-15.96 0z"/><path data-name="Контур 195" d="M214.027 574.46a11.285 11.285 0 1015.96 0 11.28 11.28 0 00-15.96 0z"/><path data-name="Контур 196" d="M244.067 604.5a11.282 11.282 0 1015.95 0 11.28 11.28 0 00-15.95 0z"/></g></g><g data-name="Сгруппировать 122"><g data-name="Сгруппировать 121" fill="#f1f1f5"><path data-name="Контур 197" d="M93.897 454.34a11.285 11.285 0 1015.96 0 11.3 11.3 0 00-15.96 0z"/><path data-name="Контур 198" d="M123.937 484.37a11.285 11.285 0 1015.96 0 11.28 11.28 0 00-15.96 0z"/><path data-name="Контур 199" d="M153.967 514.4a11.282 11.282 0 1015.95 0 11.28 11.28 0 00-15.95 0z"/></g></g><g data-name="Сгруппировать 124"><g data-name="Сгруппировать 123" fill="#f1f1f5"><path data-name="Контур 200" d="M33.897 393.77a11.285 11.285 0 1015.96 0 11.28 11.28 0 00-15.96 0z"/><path data-name="Контур 201" d="M63.937 423.81a11.282 11.282 0 1015.95 0 11.28 11.28 0 00-15.95 0z"/></g></g></g></g></g></svg>