<svg xmlns="http://www.w3.org/2000/svg" width="49.001" height="32.818"><path d="M.5.5h11.173C17.964.5 22.542 2 22.542 8.266a7.381 7.381 0 01-3.928 6.693 7.406 7.406 0 015.3 7.449c0 3.2-1.738 8.083-7.091 8.732-2.5.3-13.667.211-16.323.211zm5.646 5.134v7.136h3.7c2.945 0 7.209.516 7.209-3.619s-3.907-3.513-7.664-3.513H6.15zm0 12.27v8.253h5.223c2.725 0 6.71.378 6.71-4.041 0-4.159-3.485-4.208-7.38-4.208H6.15zm36.013 6.795l6.015.991c-1.5 4.2-4.772 6.629-9.926 6.629-7.388 0-11.064-4.7-11.064-11.511 0-7.77 4.728-11.852 10.463-11.852 7.81 0 11 5.581 10.849 13.387H33.37c.089 3.7 2.327 5.556 4.943 5.556 2.099 0 3.253-1.193 3.846-3.2zm.341-5.975a4.512 4.512 0 10-9.025 0zM31.514 2.364h12.66v3.164h-12.66z" fill="none" stroke="#f1f1f5" stroke-linecap="round" stroke-linejoin="round" stroke-miterlimit="10"/></svg>