<svg xmlns="http://www.w3.org/2000/svg" width="50.38" height="50.44"><g fill="none" stroke="#f1f1f5" stroke-linecap="round" stroke-linejoin="round" stroke-miterlimit="10"><path d="M23.32 32.836c-.17 0-.344-.008-.517-.025a5.705 5.705 0 01-4.081-2.591 9.035 9.035 0 01-1.436-6.06c.422-4.139 3.34-7.38 6.639-7.38.17 0 .344.008.517.025a5.705 5.705 0 014.081 2.591 9.035 9.035 0 011.436 6.06c-.426 4.135-3.34 7.38-6.639 7.38z"/><path d="M40.014 39.894a21.35 21.35 0 01-2.4 2.086 20.849 20.849 0 118.262-19.509c1.722 12.054-12.356 13.56-11.015 6.354l2.347-14.078-3.688-.671-.919 5.944a9.578 9.578 0 00-7.807-6.557c-5.34-.546-10.191 4.085-10.833 10.348s3.171 11.781 8.51 12.327a9.592 9.592 0 009.011-4.9c.7 2.372 2.79 4.479 6.4 4.959 7.542 1.006 12.906-6.37 11.855-14.239a24.73 24.73 0 10-6.942 20.655 19.933 19.933 0 001.954-2.3 16.143 16.143 0 001.267-2.057"/></g></svg>