<svg xmlns="http://www.w3.org/2000/svg" width="50.255" height="50.255"><g transform="translate(.5 .5)" fill="none" stroke="#f1f1f5" stroke-linecap="round" stroke-linejoin="round" stroke-miterlimit="10"><circle cx="19.548" cy="19.548" r="19.548" transform="translate(6.253 3.905)"/><path d="M4.362 32.974L0 49.255l16.281-4.362a23.455 23.455 0 10-11.92-11.92z"/><path d="M37.973 17.911A90.613 90.613 0 0120.94 34.944c-3.234 2.424-9.946-2.635-8.285-4.3l5.283-5.283a1.388 1.388 0 011.962 0 4.347 4.347 0 011.7 2.982 40.336 40.336 0 009.029-9.029 4.332 4.332 0 01-2.982-1.7 1.388 1.388 0 010-1.962l5.762-5.762c2.115-2.11 6.6 5.398 4.564 8.021z"/></g></svg>