<svg xmlns="http://www.w3.org/2000/svg" width="137.643" height="182.917"><g data-name="Сгруппировать 170"><path data-name="Контур 342" d="M131.371 31.692c-2.7-6.3-8.07-9.107-14.195-10.951-3.68-1.109-4.273-3.738-1.458-6.516a11.487 11.487 0 002.631-2.893c.236-.48.571-.963.226-1.46-.456-.657-1.059-.388-1.634-.1-2.968 1.471-5.982 2.853-8.9 4.421-4.416 2.376-4.9 2.283-7.169-2.1-3.112-6-8.215-8.5-13.73-6.733-.827.265-1.835.366-1.887 1.5-.044.962.8 1.256 1.522 1.589a27.229 27.229 0 018.285 5.876c.867.907 2.237 1.763 1.578 3.309s-2.212 1.628-3.617 1.516c-4.342-.346-8.558.546-12.742 1.389a20.055 20.055 0 00-7.947 3.244 3.038 3.038 0 00-1.567 2.575c.069 1.125 1.175 1.071 1.984 1.353 1.835.64 2.171 2.763.585 4.13-.844.727-1.947 1.145-2.871 1.791-1.836 1.282-4.4 1.762-5.238 4.966 1.624-.639 2.934-.842 3.832-1.562a21.129 21.129 0 0113.006-4.658 11.091 11.091 0 006.539-2.367c1.385-1.06 2.909-1.938 4.3-2.991 1.269-.962 2.446-1.019 3.436.241.935 1.19.538 2.3-.585 3.186-4.267 3.372-8.455 6.818-14.446 6.458-2.975-.179-5.614 1.068-8.063 2.727a36.326 36.326 0 01-7.093 3.888c-2.493.978-4.633 1.049-6.269-1.245-1.51-2.118-.946-5.33 1.1-7.462.3-.315.672-.565.971-.883.756-.8 2-1.52 1.355-2.829-.548-1.117-1.811-.8-2.847-.8q-23.9 0-47.795-.007c-1.022 0-2.28-.339-2.764.9-.5 1.263.748 1.844 1.465 2.523 4.949 4.692 10.022 9.257 14.864 14.055 2.01 1.992 3.757 2.063 6.035.686 6.21-3.752 11.86-2.8 16.586 2.678 4.822 5.586 6.681 5.531 11.68.178 5.748-6.153 10.394-6.647 16.884-2.681 3.754 2.294 4.133 2.194 7.506-.819.521-.466 1.008-.969 1.521-1.444q7.305-6.777 14.618-13.544c1.548-1.427 3.424-2.572 5.427-1.422 2.077 1.191 1.15 3.338.988 5.246-.2 2.384-1.4 5 .128 7.16 4.089 5.8 4.335 12.647 5.66 19.205.2.98.194 1.95 1.335 2.3a2.222 2.222 0 002.734-.961c4.555-6.869 6.757-14.138 3.878-22.306a6.939 6.939 0 01-.323-2.071 1.848 1.848 0 011.474-2.162 2.138 2.138 0 012.513.914 16.169 16.169 0 001.983 2.755 4.7 4.7 0 004.885 1.027c1.636-.477 1.228-2.158 1.159-3.406a21.55 21.55 0 00-1.533-7.413z" fill="none"/><path data-name="Контур 343" d="M75.437 165.679c-.448-1.107-1.088-2.43-2.479-2.4s-1.928 1.363-2.457 2.462c-1.868 3.877-2.2 8.392-4.99 11.906a6.738 6.738 0 00-.774 2.26c.054 1.147.289 2.028 1.225 2.366.964.347 1.306-.579 1.852-1.114 1.075-1.053 1.207-3.131 3.184-3.179 2.6-.062 5.535-.947 6.8 2.671a1.893 1.893 0 002.6 1.14c1.261-.554.725-1.55.369-2.462-1.772-4.551-3.5-9.121-5.33-13.65zm-2.641 8.015c-1.1-.13-1.307-1-1.2-1.917.1-.867.32-1.71 1.432-1.83 1.138.319 1.343 1.24 1.356 2.206.009 1.012-.522 1.667-1.589 1.541z" fill="#fff"/><path data-name="Контур 344" d="M85.449 145.637c1.038.369.879 1.4.872 2.257-.008 1.223-.107 2.445-.1 3.668.005 1.242.007 2.7 1.718 2.675 1.445-.024 1.707-1.351 1.738-2.515.063-2.357.019-4.717.019-7.077h.063c0-2.359.013-4.718-.006-7.077a2.258 2.258 0 00-1.516-2.236 1.344 1.344 0 00-1.749.737c-1.59 2.7-3.952 4.891-5.25 7.791a1.98 1.98 0 01-1.963 1.434c-1.035-.042-1.382-.821-1.88-1.578-1.807-2.75-3.029-5.883-5.384-8.276-.525-.534-1.087-.911-1.849-.543a1.715 1.715 0 00-.9 1.5c-.555 5.125-.318 10.272-.387 15.409-.016 1.244.457 2.376 1.886 2.33 1.295-.042 1.637-1.146 1.628-2.284-.01-1.485-.106-2.969-.1-4.453 0-.784.049-1.685.968-1.958 1.025-.3 1.278.588 1.657 1.28a31.527 31.527 0 002.117 3.6c1.467 2 2.932 1.936 4.337-.079a85.83 85.83 0 002.178-3.268c.458-.73.772-1.742 1.903-1.337z" fill="#fff"/><path data-name="Контур 345" d="M65.729 152.443c.053-1.175-.767-1.449-1.719-1.492s-1.919-.069-2.878-.064c-3.406.02-3.668-.227-3.681-3.741-.012-3.143.032-6.286.007-9.429-.01-1.308.049-2.948-1.79-2.894-1.739.051-2.127 1.522-2.12 3.053.009 2.182 0 4.365 0 6.547h.057c0 2.27.088 4.544-.029 6.808-.09 1.742.84 2.9 2.262 3.025a67.626 67.626 0 008.351 0c1.019-.032 1.496-.842 1.54-1.813z" fill="#fff"/><path data-name="Контур 346" d="M61.801 165.273a1.833 1.833 0 00-1.916-2.054c-1.211.019-1.552 1.007-1.583 2.031-.049 1.57-.013 3.143-.013 4.715h-.048a37.348 37.348 0 01-.056 5.489c-.312 2.083-1.6 3.537-3.932 3.393-2.2-.137-3.212-1.556-3.347-3.651-.067-1.044-.034-2.095-.045-3.142-.024-2.27 0-4.541-.09-6.807-.04-1.035-.511-1.928-1.747-1.856-1.018.059-2.062.494-1.987 1.663.283 4.414-.66 8.932 1.011 13.228 1.034 2.659 4.427 4.809 7.039 4.545a7.852 7.852 0 006.356-5.791c.718-3.896.242-7.841.358-11.763z" fill="#fff"/><path data-name="Контур 347" d="M137.388 36.718c-1.391-8.873-5.75-15.217-14.171-18.592-2.525-1.012-2.761-2.152-.825-4.157 1.63-1.688 3.535-3.1 4.712-5.235.8-1.454 1.513-2.9.674-4.434-.928-1.7-2.733-1.435-4.249-1.2-5.41.846-10.247 3.294-15.047 5.752-2.672 1.368-3.489 1.263-5.02-1.338-2.729-4.636-9.777-8.394-14.42-7.335-4.936 1.127-9.74 2.713-13.912 5.788-1.105.814-2.271 1.466-1.72 3.1.492 1.458 1.778 1.624 3.016 1.532 2.8-.209 5.341.735 7.937 1.5.776.228 1.614.418 1.576 1.44-.035.951-.82 1.316-1.589 1.514-1.692.438-3.4.84-5.113 1.173-5.1.99-9.631 3.021-12.959 7.165a6.734 6.734 0 01-5.822 2.791c-9.363-.14-18.731-.056-28.1-.059H12.662q-4.989 0-9.978.02A2.39 2.39 0 00.24 27.328a2.507 2.507 0 00.606 2.888 13.412 13.412 0 001.258 1.333q10.666 9.9 21.346 19.781c6.93 6.4 13.814 12.86 20.841 19.155 3.283 2.942 5.188 6.007 5.022 10.8-.4 11.453-.129 22.928-.128 34.395 0 5.639 0 5.6-5.471 6.445-1.344.206-3.187.435-3.083 2.194.1 1.732 1.682 2.572 3.4 2.658 1.834.092 3.676.05 5.513.033 4.064-.039 4.882-.881 4.882-4.981 0-14.88-.052-29.76.046-44.64a7.741 7.741 0 00-2.881-6.354C45.918 65.98 40.4 60.75 34.845 55.563c-1.44-1.345-1.179-2.669.415-3.654a7.365 7.365 0 019.336 1.419c1.116 1.229 2.2 2.492 3.408 3.628a9.293 9.293 0 0013.363-.009c1.2-1.145 2.268-2.426 3.45-3.59 2.2-2.168 4.664-3.352 7.8-2.014 1.6.681 3.673 1.036 4.036 2.942.359 1.887-1.668 2.722-2.821 3.813-5.075 4.8-10.24 9.509-15.371 14.252a5.23 5.23 0 00-1.91 4.1q.09 23.239.009 46.477c-.008 2.507 1.262 3.486 3.51 3.57 1.66.061 3.326.019 4.988-.024 1.781-.046 4.295.475 4.418-2.023.136-2.756-2.417-2.437-4.32-2.378-2.3.07-3.381-.921-3.375-3.27q.049-20.481.016-40.963a5.531 5.531 0 011.991-4.358c4.722-4.283 9.381-8.634 14.064-12.959q10.989-10.137 21.972-20.273c.557-.513 1.109-1.277 2.02-.88a1.737 1.737 0 01.825 2.044c-.373 2.438.68 4.407 1.838 6.39 1.859 3.181 3.375 6.336 2.9 10.336-.284 2.388 1.224 4.833.949 7.45-.106 1 .818 1.887 1.744 2.48 1.032.66 2.1 1.268 3.1 1.979 2.633 1.878 3.915 1.854 5.981-.674 4.22-5.163 7.273-10.828 7.474-17.75.043-1.476-.558-3.824 1.589-4.249 2.468-.488 2.386 1.945 2.975 3.505.465 1.233.959 2.6 2.649 2.446a2.786 2.786 0 002.507-2.648c.666-4.622 1.766-9.143 1.013-13.96zm-5.641 5.792a4.7 4.7 0 01-4.885-1.027 16.168 16.168 0 01-1.983-2.755 2.138 2.138 0 00-2.513-.914 1.848 1.848 0 00-1.474 2.162 6.94 6.94 0 00.324 2.057c2.879 8.168.678 15.437-3.878 22.306a2.222 2.222 0 01-2.734.961c-1.14-.346-1.137-1.316-1.335-2.3-1.325-6.559-1.572-13.409-5.66-19.205-1.523-2.159-.33-4.775-.128-7.16.162-1.908 1.089-4.054-.988-5.246-2-1.149-3.879 0-5.427 1.422q-7.325 6.757-14.62 13.549c-.513.475-1 .979-1.521 1.444-3.373 3.013-3.752 3.113-7.506.819-6.49-3.966-11.136-3.472-16.884 2.681-5 5.353-6.859 5.408-11.68-.178-4.726-5.476-10.376-6.431-16.586-2.678-2.278 1.376-4.025 1.306-6.035-.686-4.842-4.8-9.915-9.363-14.864-14.055-.716-.679-1.96-1.26-1.465-2.523.484-1.236 1.742-.9 2.764-.9q23.9 0 47.795.007c1.036 0 2.3-.313 2.847.8.642 1.309-.6 2.026-1.355 2.829-.3.318-.669.568-.971.883-2.046 2.132-2.61 5.344-1.1 7.462 1.636 2.295 3.776 2.223 6.269 1.245a36.327 36.327 0 007.093-3.888c2.449-1.659 5.088-2.905 8.063-2.727 5.991.36 10.18-3.086 14.446-6.458 1.124-.888 1.521-2 .585-3.186-.99-1.26-2.167-1.2-3.436-.241-1.39 1.053-2.915 1.931-4.3 2.991a11.091 11.091 0 01-6.539 2.367 21.129 21.129 0 00-13.005 4.667c-.9.719-2.208.922-3.832 1.562.84-3.2 3.4-3.684 5.238-4.966.925-.646 2.027-1.063 2.871-1.791 1.586-1.367 1.251-3.49-.585-4.13-.809-.282-1.915-.228-1.984-1.353a3.038 3.038 0 011.567-2.575 20.055 20.055 0 017.947-3.244c4.184-.843 8.4-1.735 12.742-1.389 1.4.112 2.957.033 3.617-1.516s-.711-2.4-1.578-3.309a27.229 27.229 0 00-8.285-5.876c-.717-.334-1.565-.627-1.522-1.589.051-1.129 1.059-1.23 1.887-1.5 5.515-1.766 10.618.733 13.73 6.733 2.273 4.383 2.753 4.476 7.169 2.1 2.915-1.568 5.929-2.95 8.9-4.421.574-.284 1.178-.553 1.633.1.345.5.01.98-.226 1.46a11.486 11.486 0 01-2.631 2.893c-2.815 2.778-2.222 5.407 1.458 6.516 6.124 1.844 11.5 4.653 14.195 10.951a21.55 21.55 0 011.536 7.408c.067 1.253.475 2.936-1.161 3.411z" fill="#fff"/><path data-name="Контур 348" d="M13.576 169.905c-.982-.41-1.936-1.1-1.539-2.388.356-1.152 1.466-1.05 2.423-1.1 1.671-.091 2.973.9 4.423 1.471.817.325 1.807.5 2.364-.414s-.018-1.67-.724-2.268a11.221 11.221 0 00-5.946-2.532c-2.6-.324-6.117 2.293-6.72 4.715-.508 2.043 1.445 4.76 4.259 5.9 1.293.526 2.586 1.054 3.9 1.532 1.209.441 1.975 1.182 1.727 2.54-.235 1.288-1.272 1.541-2.382 1.595a5.32 5.32 0 01-4.155-1.17c-1.023-.93-2.44-1.567-3.457-.273-.99 1.261.278 2.362 1.147 3.094a9.435 9.435 0 006.4 2.256c1.208.289 2.426-.686 3.755-1.325a5.005 5.005 0 001.378-7.987c-1.909-2.004-4.452-2.645-6.853-3.646z" fill="#fff"/><path data-name="Контур 349" d="M96.312 165.077c-2.669-2.011-6-1.579-9.08-1.934-2.108-.244-3.021.94-2.987 3 .036 2.186.008 4.373.008 6.56h.028c0 1.137-.007 2.274 0 3.411.049 6.482.286 6.7 6.671 6.213a9.547 9.547 0 005.36-17.248zm-.106 8.717c-.342 2.858-3.645 5.292-6.652 4.973a2.045 2.045 0 01-2.11-2.389c.04-1.215.008-2.433.008-3.649h.023v-2.868c-.009-2.848.772-3.551 3.581-3.218 3.457.409 5.6 3.385 5.149 7.151z" fill="#fff"/><path data-name="Контур 350" d="M49.727 154.098c1.011-.332 1.162-1.2 1.029-2.462-2.191-4.977-3.886-10.5-6.571-15.608a1.834 1.834 0 00-1.923-1.11c-1.112.174-1.464 1.1-1.839 2.007-1.92 4.652-3.826 9.31-5.819 13.931-.509 1.182-1.3 2.338.444 2.995 1.51.57 2.559-.183 2.937-1.708.256-1.035.734-1.806 1.821-1.967a15.575 15.575 0 015.725.061c1.387.313 1.225 1.777 1.827 2.679.555.832 1.252 1.55 2.369 1.182zm-7.522-8.1c-1.1-.13-1.307-1-1.2-1.917.1-.867.32-1.71 1.431-1.83 1.139.319 1.343 1.24 1.357 2.205.012 1.015-.519 1.669-1.586 1.543z" fill="#fff"/><path data-name="Контур 351" d="M27.288 146.916c2.325-.436 3.886-2.327 4.154-5.014.3-3.034-.737-4.943-2.964-6.065-2.627-1.325-5.4-1.2-8.186-1.2-1.965 0-2.885.952-2.878 2.886.008 2.355 0 4.71 0 7.066 0 2.268.054 4.538-.019 6.8-.047 1.456.326 2.346 1.975 2.392 1.589.045 1.837-.912 1.939-2.172.329-4.1.348-4.1 4.425-4.48a15.39 15.39 0 001.554-.213zm-5.995-6.031c-.094-2.059 1.142-2.541 2.153-2.421 2.5.149 4.345.47 4.234 2.681-.126 2.512-2.359 2.492-4.159 2.6-1.965.127-2.161-1.392-2.228-2.86z" fill="#fff"/><path data-name="Контур 352" d="M35.686 162.802c-4.371-.391-9.286 1.859-10.6 7.006a10.057 10.057 0 002.855 10.1c2.414 2.245 5.668 3.774 9.307 2.137a3.285 3.285 0 013 .267c1.243.633 2.7.213 2.58-1.079-.3-3.07 1.188-5.734 1.432-7.716-.034-5.514-4.002-10.307-8.574-10.715zm-1.115 16.1c-3.091-.05-6.578-3.482-6.483-6.38a6.668 6.668 0 016.672-6.071 5.525 5.525 0 015.674 6.1c-.116 3.867-2.46 6.408-5.858 6.353z" fill="#fff"/></g></svg>