<svg xmlns="http://www.w3.org/2000/svg" width="134.993" height="45.44"><g data-name="Сгруппировать 171" fill="#fff"><path data-name="Контур 353" d="M24.874 43.965V24.491h-17.2v19.474H.003V.738h7.671v16.937h17.2V.738h7.583v43.227z"/><path data-name="Контур 354" d="M76.009 7.554v36.411h-7.672V7.554h-13.75V.738h35.791v6.816z"/><path data-name="Контур 355" d="M89.405 40.1a5.314 5.314 0 111.549 3.777 5.122 5.122 0 01-1.549-3.777z"/><path data-name="Контур 356" d="M108.822 41.576l2.833-6.875a15.568 15.568 0 008.941 3.187q6.757 0 6.757-4.721a6.692 6.692 0 00-1.593-4.219q-1.594-2.007-6.565-4.5a31.519 31.519 0 01-6.7-4.1 10.964 10.964 0 01-2.656-3.822 12.527 12.527 0 01-.929-4.9 10.715 10.715 0 013.674-8.321 13.561 13.561 0 019.427-3.3q7.494 0 11.006 2.8l-2.331 6.609a14.424 14.424 0 00-8.527-2.891 5.7 5.7 0 00-4.116 1.4 4.823 4.823 0 00-1.461 3.644q0 3.717 8.233 7.73a26.876 26.876 0 016.255 3.909 12.03 12.03 0 012.921 4.161 13.49 13.49 0 011 5.3 10.688 10.688 0 01-4.146 8.646q-4.145 3.393-11.109 3.393a19.765 19.765 0 01-10.914-3.13z"/></g></svg>