<svg xmlns="http://www.w3.org/2000/svg" width="318.652" height="134.838"><g data-name="Сгруппировать 169" fill="#fff" stroke="#fff"><g data-name="Сгруппировать 167" stroke-miterlimit="10"><path data-name="Контур 333" d="M23.715 82.29h15.274l26.024-43.373h28.5L71.023.5H22.878L.572 40.156z"/><path data-name="Контур 334" d="M100.703 51.309h16.234l23.422 42.134-23.546 40.895H69.722L47.044 94.682h28.874z"/></g><g data-name="Сгруппировать 168"><path data-name="Контур 335" d="M181.261 84.128h-6.1V56.664q5.835-.207 7.335-.2 6 0 9.522 3.515a12.621 12.621 0 013.516 9.333q.003 14.816-14.273 14.816zm-1.22-23.206v18.762q1.182.11 2.552.112a6.938 6.938 0 005.789-2.683q2.089-2.685 2.091-7.5 0-8.817-8.2-8.818-.787-.004-2.232.127z"/><path data-name="Контур 336" d="M204.729 60.98v6.432h9.08v4.146h-9.08v8.238h12.458v4.333h-17.334V56.645h17.539v4.335z"/><path data-name="Контур 337" d="M221.708 84.129V56.645h4.876v23.151h12.419v4.333z"/><path data-name="Контур 338" d="M243.038 84.129V56.645h4.879v27.484z"/><path data-name="Контур 339" d="M272.471 58.107l-2 4.034q-1.633-1.633-5.254-1.633a6.778 6.778 0 00-5.629 2.881 11.671 11.671 0 00-2.193 7.287 11.023 11.023 0 002.033 7 6.562 6.562 0 005.433 2.587 7.318 7.318 0 006.077-2.776l2.27 3.938q-2.982 3.174-8.74 3.173t-8.949-3.791q-3.189-3.789-3.189-10.335a15.065 15.065 0 013.535-10.2 11.411 11.411 0 019.051-4.1 13.2 13.2 0 017.555 1.935z"/><path data-name="Контур 340" d="M293.183 84.128l-2.008-5.571h-9.416l-1.915 5.571h-5.42l10.956-27.857h2.139l11.049 27.858zm-6.733-19.457l-3.3 10.149h6.605z"/><path data-name="Контур 341" d="M309.018 60.98v23.149h-4.879V60.98h-8.741v-4.335h22.754v4.335z"/></g></g></svg>