<svg xmlns="http://www.w3.org/2000/svg" width="195.625" height="195.916"><g data-name="Сгруппировать 166" fill="none" stroke="#fff" stroke-miterlimit="10"><path data-name="Контур 322" d="M97.662.522a100.062 100.062 0 0123 2.859 96.148 96.148 0 0128.823 12.059 104.454 104.454 0 0122.292 19.535c3.96 4.492 7.029 9.551 10.512 14.344 1.2 1.653.8 3.428-.948 4.979a3.374 3.374 0 01-4.886.009 22.743 22.743 0 01-4.329-6.013 58.7 58.7 0 00-6.816-8.817 85.979 85.979 0 00-17.96-15.976 92.832 92.832 0 00-43-14.695c-7.441-.785-14.63.351-21.929 1.524a82.561 82.561 0 00-30.452 11.369 96.152 96.152 0 00-23.267 20.114c-8.327 9.86-13.433 21.113-17.108 33.247a54.56 54.56 0 00-2.331 13.618 4.476 4.476 0 01-.036.785c-.208.916-.915 2.171-.01 2.649.806.425 1.945-.431 2.8-1.018a37.209 37.209 0 0118.01-6.232c5.567-.484 10.555 3.225 11.359 7.867a24.691 24.691 0 01-.092 9.294 5.636 5.636 0 00-.143 1.363c.016.391-.274 1.01.465 1.062.513.036.552-.413.678-.8.449-1.362 1-2.691 1.4-4.068.528-1.853 1.353-3.3 3.418-3.832 1.337-.345.653-1.268.265-1.992-1.336-2.5.428-6.311 3.233-6.835 1.416-.265 2.329.861 3.075 1.725a2.452 2.452 0 01.567 3.037c-1.056 1.729-1.9 3.569-4.3 3.9-1.01.139-.528.875-.055 1.247 1.566 1.236 1.217 2.622.6 4.212-1.061 2.722-1.973 5.5-2.885 8.279-.185.563-.536 1.425.165 1.754.738.347 1.1-.526 1.482-1.012 1.2-1.545 2.309-3.17 3.551-4.682.809-.985 1.878-1.832 3.239-1.176s2.591 1.6 2.685 3.344c.046.85.036 1.705.024 2.558a6.415 6.415 0 00.525 2.478 1.754 1.754 0 002.472 1.2c1.363-.453 1.062-1.412.746-2.4a29.029 29.029 0 00-2.666-5.224c-1.38-2.472-2.792-4.912-2.739-7.965.073-4.2 3.648-5.816 6.881-5.706a7.892 7.892 0 013.558.868c.994.571 2.284 1.423 1.942 2.9-.367 1.584-1.028 3.1-2.852 3.623-.982.282-1.766.508-1.068 1.94 1.118 2.294 1.543 2.435 3.323.517 1.032-1.111 2.135-2.465 3.819-1.709a4.427 4.427 0 012.739 4.187 15.694 15.694 0 00.378 4.473 1.722 1.722 0 002.19 1.43c1.1-.261 1.867-.885 1.632-2.242-.313-1.8-1.4-3.212-2.306-4.71a27.118 27.118 0 01-3.38-6.571 6.4 6.4 0 014.5-8.021 8.185 8.185 0 016.059.491c1.282.693 2.48 1.606 2 3.336-.5 1.789-1.441 3.375-3.565 3.264s-1.839.771-1.1 2.023c.8 1.35 1.564 2.724 2.464 4 .726 1.034 1.619.984 1.973-.283 1.012-3.62 1.858-7.287 2.872-10.907.428-1.527.864-3.176 2.268-4.133 1.52-1.036 2.939-.462 4.3.572 1.53 1.164 1.316 2.838.819 4.127-1.357 3.525-1.8 7.3-3.209 10.8-.289.718-.684 1.859.156 2.286.805.409 1.257-.712 1.768-1.25 1.528-1.608 2.041-3.587 2.624-5.733 1.648-6.055 4.091-11.743 10.861-13.935 1.859-.6 3.487.092 5.013.912 1.3.7 1.886 1.143 2.656-.782a103.885 103.885 0 014.966-9.879 3.516 3.516 0 014.584-1.871 3.448 3.448 0 011.549 4.938c-2.51 4.926-4.889 9.913-7.011 15.013-.888 2.133-1.879 4.3-1.687 6.763.121 1.563-.053 3.149 2.358 2.763 2.158-.345 3.4-1.773 2.929-3.748a15.387 15.387 0 01-.343-6.17c1.477-8.863 6.933-14.047 15.349-14.379 5.178-.2 8.81 4.232 6.489 9.822a23.7 23.7 0 01-5.446 7.561c-.578.58-1.72 1.317-1.2 2 .608.8 1.691-.107 2.469-.463 4.323-1.972 5.416-6.009 6.817-10.1 1.968-5.741 5.019-10.907 11.108-13.344 3.513-1.406 7.548.826 8.7 4.538a13.71 13.71 0 01.028 8.526c-.18.56-.589 1.633.264 1.878.886.254 1.424-.763 1.563-1.462.52-2.62 1.6-5.06 2.286-7.619a1.457 1.457 0 00-.577-1.548c-2.315-2.036-1.861-5.712 1.018-6.014 4.068-.426 4.76-3.484 6.195-6.116a21.073 21.073 0 012.7-4.5 2.562 2.562 0 013.526-.514 3.871 3.871 0 012.052 3.894.906.906 0 01-.188.34c-1.467 2.263-1.972 4.121 1.3 5.451 1.666.677.978 2.557.6 3.861a3.425 3.425 0 01-3.392 2.142c-4.135 0-5.62 2.441-6.478 5.922-.51 2.068-1.431 4.031-2.051 6.077-.245.81-.745 1.917.233 2.49.9.527 1.53-.436 2.165-.963 1.511-1.254 2.759-2.777 4.291-4.031 1.558-1.275 2.672-.8 3.942.3 1.435 1.249 1.981 2.724.818 4.306a22.134 22.134 0 01-9.6 7.763 5.071 5.071 0 01-5.731-1.265c-1.1-1.084-1.822-.958-2.764.037a15.088 15.088 0 01-5.527 3.945c-3.228 1.234-5.829-1.147-5.731-4.493.136-4.674 2-8.86 2.746-13.328.143-.851.108-1.8-.446-2.154-.729-.471-1.431.334-1.967.884-4.078 4.189-5.629 9.386-5.943 15.062-.119 2.157-.207 4.271-1.98 5.921-.96.895-2.281 1.287-3.02.639-2.084-1.826-3.643-.246-5.238.526-3.928 1.9-7.873 3.352-12.327 2.109a2.938 2.938 0 00-2.6.582 22.493 22.493 0 01-6.164 2.87 5.618 5.618 0 01-5.855-1.093c-1.455-1.3-2.428-1.113-3.545.323a15.486 15.486 0 01-6.4 4.363c-2.21.963-4.177-.1-5.83-1.332-1.235-.924-1.858-.723-2.775.247a14.613 14.613 0 01-4.256 3.113c-2.437 1.186-4.16 1.085-6.115-.677-.792-.713-1.213-.8-1.785.184a7.614 7.614 0 01-3.12 2.925c-.351.185-.733.441-.573.9.183.526.647.284 1 .213 6.164-1.224 12.317-2.509 18.494-3.668 3.654-.686 7.356-1.111 11.016-1.767 5.182-.928 10.346-1.955 15.516-2.951 5.668-1.091 11.338-2.171 17-3.3 2.985-.6 5.938-1.353 8.927-1.929 5.608-1.08 11.237-2.054 16.848-3.121 5.8-1.1 11.579-2.3 17.383-3.372a14.221 14.221 0 013.907-.135 4.1 4.1 0 013.26 3.84 111.355 111.355 0 01-2.131 17.191c-1.675 9.5-5.569 18.159-10.055 26.531-5.541 10.342-13.257 19-22 26.784a88.332 88.332 0 01-16.3 11.437 82.433 82.433 0 01-12.813 5.594c-3.121 1.078-6.2 2.316-9.38 3.174-3.248.876-6.59 1.4-9.918 1.969a92.456 92.456 0 01-23.448.605 87.083 87.083 0 01-16.041-2.916 107.935 107.935 0 01-15.015-5.29 89.99 89.99 0 01-21.964-14.042 132.259 132.259 0 01-12.375-11.984c-2.941-3.273-5.147-7.072-7.894-10.478-.925-1.146-.406-4.311.613-5.13a4.482 4.482 0 015.407.284c2.32 2.164 3.816 4.963 5.636 7.506a76.774 76.774 0 0013.357 13.776 82.871 82.871 0 0024.222 14.385 133.733 133.733 0 0014.148 4.213c7.187 1.829 14.451 2.071 21.747 1.825a82.5 82.5 0 0023.715-4 107.039 107.039 0 0017.338-7.372c10.094-5.514 18.449-13.191 25.774-22.024a86.751 86.751 0 0013.851-24.591 81.323 81.323 0 005.128-20.714c.209-1.966-1.1-1.631-2.136-1.44-3.573.656-7.119 1.457-10.691 2.12-7.008 1.3-14.077 2.321-21.024 3.886-5.192 1.17-10.441 2-15.635 3.146-5.637 1.24-11.385 1.968-17.067 3.016-5.162.952-10.28 2.158-15.456 3.024-5.44.91-10.783 2.27-16.247 3.092-5.958.9-11.814 2.453-17.754 3.5-4.977.875-9.933 1.884-14.909 2.762a58.148 58.148 0 00-8.185 1.636 4.052 4.052 0 01-4.778-1.831 3.333 3.333 0 01.542-4.612 1.108 1.108 0 00.43-1.207c-.207-.611-.765-.346-1.183-.371-2.985-.175-4.267-1.553-4.338-4.589a30.25 30.25 0 01.4-5.466c.074-.464.443-1.267-.424-1.447-.656-.136-.855.5-1.035.983-1.788 4.831-4.833 8.9-7.726 13.086-2 2.9-4.59 5.2-6.957 7.711-3.1 3.281-9.473 2.85-12.378-.537a8.967 8.967 0 01-1.8-7.8 68.746 68.746 0 015.346-15.419c1.8-3.906 3.991-7.588 5.851-11.45.646-1.342 1.643-2.472 3.292-2.365s2.611 1.283 3.363 2.664a2.179 2.179 0 01-.035 2.212c-3.089 6.159-6.441 12.2-8.919 18.642-.786 2.043-1.719 4.119-1.669 6.4.017.774-.543 1.886.544 2.231a2.573 2.573 0 002.707-.743 76.868 76.868 0 005.827-6.383c5.523-7.359 8.276-15.844 10.047-24.72a9.528 9.528 0 00.01-2.943c-.289-2.415-1.861-3.31-4.257-3.029a43.3 43.3 0 00-12.44 3.674 46.723 46.723 0 00-11.284 7.631c-1.3 1.112-2.547 1.59-4.232.805-1.669-.778-1.935-2.218-1.984-3.708A92.253 92.253 0 012.666 78.27a98.451 98.451 0 018.039-23.516A84.947 84.947 0 0121.983 37.18c5.839-6.827 12.04-13.294 19.515-18.356 6.952-4.709 14.138-9.067 22.059-11.98a87.129 87.129 0 0121.671-5.22c4.13-.412 8.226-1.302 12.434-1.102zm-58.111 118.6a7.962 7.962 0 01-.021 1.767c-.421 1.8 1.006 2.477 2.082 3.122.848.508 1.814.081 2.843-.485 2.994-1.647 4.791-4.423 7.026-6.776 1.049-1.1 1.78-1.269 2.831-.067.883 1.008 1.655 2.44 2.952 2.708 4.633.956 9.791.5 11.654-5.368.182-.573.284-1.143 1.064-1.2a1.241 1.241 0 011.319.646c2.856 5.453 11.42 3.65 13.459-.632.89-1.871 1.943-1.392 2.862-.51a4.489 4.489 0 005.031.985 10.706 10.706 0 004.678-3.536 2.148 2.148 0 013.4-.219 6.2 6.2 0 007.594.581 18.378 18.378 0 004.091-3.548c.921-1.028 1.91-2.08 3.42-.611a7.322 7.322 0 009.142.68c2.125-1.419 4.105-2.732 7.044-2.23 4.56.78 8.711-.911 12.615-3.232 1.154-.686 2.346-.963 3.543.245a1.772 1.772 0 003.129-1.043c.2-2.337.945-4.589 1.153-6.861a22.063 22.063 0 016.65-13.922 2.485 2.485 0 012.872-.559 2.329 2.329 0 011.221 2.654c-.842 3.685-1.775 7.348-2.58 11.043a19.515 19.515 0 00-.558 4.352 2.162 2.162 0 002.629 2.174c2.827-.474 5.436-1.579 7.148-4.141a2.142 2.142 0 013.54-.11 2.247 2.247 0 001.494 1.134c2.281.356 4.436.386 6.45-1.194a33.3 33.3 0 005.1-4.768c1.012-1.206 1.79-2.442.618-3.517-1.112-1.022-2.65-.864-3.956.39-1.665 1.6-3.106 3.468-5.208 4.584-.894.475-1.918.559-1.989-.552-.143-2.253-.572-4.593.547-6.762a45.78 45.78 0 002.024-5.371c1.042-2.846 1.873-3.66 4.911-4.041a12.011 12.011 0 004.149-1.46c.745-.408.744-1.527.428-2.351-.433-1.126-1.649-1.173-2.5-1.1-2.139.195-1.841-.719-1.486-2.22.389-1.642 1.626-2.828 1.854-4.628.208-1.645-.938-1.74-1.609-2.207-.627-.437-1.484-.3-2.141.633-1.6 2.27-2.41 4.935-3.877 7.262-.6.959-.9 2.373-2.131 2.516a10.888 10.888 0 00-3.624 1.346c-1.878.93-1.96 2.594-.1 3.509.986.486.944 1.113 1.146 1.947.411 1.7-1.088 2.709-1.236 4.157a13.525 13.525 0 01-4.089 8.045c-.8.836-1.795.521-2.1-.624a3.266 3.266 0 01.089-2.292c1.734-2.8 1.156-5.834.927-8.773a4.793 4.793 0 00-3.084-4.426 7.291 7.291 0 00-5.866.428 15.488 15.488 0 00-6.476 6.95 26.213 26.213 0 00-2.872 6.84c-.514 2.536-1.152 5.388-4.114 7.012-2.209 1.211-4.37 2.583-6.6 3.813-.812.448-1.67.842-2.308.088s-.131-1.451.55-2.165c3.164-3.324 6.546-6.457 8.339-10.894a6.157 6.157 0 00-1.2-6.3c-2.278-2.27-9.354-.851-11.829.729a12.539 12.539 0 00-5.62 7.094c-.673 2.438-1.4 4.99-.881 7.743.865 4.605 1.441 5.231-3.207 6.99a4.486 4.486 0 00-.5.292c-2.061 1.106-3.143.514-3.486-1.745a17.492 17.492 0 011.756-10.406c2.233-4.637 4.224-9.39 6.674-13.928.4-.732 1.132-1.834.011-2.83-1.844-1.639-3.617-1.026-4.5 1.551-1.164 3.384-3.112 6.392-4.67 9.588-1 2.042-2.464 1.547-3.819.8a6.4 6.4 0 00-6.29-.116c-5.294 2.8-7.227 8.094-8.282 13.361-.732 3.655-3.348 5.279-5.339 7.655a1.47 1.47 0 01-1.986.241 1.382 1.382 0 01-.275-1.8c1.1-1.53.907-3.316 1.342-4.969a34.1 34.1 0 011.123-4.029c.684-1.678.687-3.541 1.632-5.094.448-.736.944-1.451.182-2.3s-1.578-1.584-2.86-1.267c-1.059.261-1.294 1.069-1.53 2.02-.435 1.753-.937 3.5-1.416 5.23-.834 3.016-2.051 5.915-2.242 9.1-.04.661-.127 1.632-1.146 1.514-.942-.108-2.183-.167-2.472-1.273-.576-2.2-2.227-3.719-3.291-5.6a3.773 3.773 0 01-.37-3.158c.38-1.113 1.529-.651 2.413-.678.782-.023 1.763.415 2.238-.584a2.911 2.911 0 00-2.232-4.185c-2.9-.435-5.674.382-7.172 2.792-1.083 1.743-.527 4.072.439 6.149 1.392 2.993 3.563 5.495 4.98 8.467.913 1.917.623 3.048-1.6 4.364a3.2 3.2 0 01-4.148-.942c-1.408-1.966-1.3-4.182-1.282-6.415.005-.783.4-1.882-.791-2.135-1.115-.237-2.349-.532-3.2.7-.331.478-.711.921-1.073 1.377-.693.875-2.658.979-3.176.093a37.888 37.888 0 01-1.741-3.492c-.753-1.664-.283-2.461 1.643-2.358.782.042 1.774.424 2.325-.545a2.879 2.879 0 00-2.372-4.136c-1.11-.074-2.236.066-3.342-.034-2.535-.229-4.813 4.136-3.847 6 1.008 1.941 1.6 4.048 2.82 5.922 1.322 2.032 2.962 3.908 3.04 6.691.074 2.634-1.918 2.785-3.339 3.2-1.55.456-2.35-1.012-2.79-2.4a14.634 14.634 0 01-.244-5.084c.062-1.6-.982-2.284-2.081-2.755-1.13-.484-2 .51-2.6 1.274a53.713 53.713 0 00-4.562 6.437 5.238 5.238 0 01-2.662 2.035c-.879.449-1.233-.182-1-.771 1.1-2.77 1.736-5.688 2.748-8.492.809-2.244 2.157-4.473 1.91-7.06-.054-.559.239-1.375-.61-1.372-1.108 0-2.727-.722-3.25.369a31.526 31.526 0 00-2.42 7.226c-.376 1.833-1.236 3.464-1.628 5.3-.629 2.909-2.217 5.606-1.996 8.729zm57.573 75.213c6.319-.018 11.462-1.4 16.723-1.244a1.7 1.7 0 00.727-.246c2.661-1.3 5.707-.935 8.479-1.968 1.063-.4 2.034-1.16 3.189-1.266 3.055-.282 5.7-1.814 8.483-2.85a73.44 73.44 0 0012.136-5.831 102.4 102.4 0 0014.654-10.62 91.327 91.327 0 0011.276-12.138 84.432 84.432 0 007.137-10.078c1.471-2.526 2.91-5.081 4.19-7.708a67.208 67.208 0 004.164-9.5 78.89 78.89 0 002.746-9.193c.766-4.257 2.083-8.42 2.069-12.8a11.138 11.138 0 01.813-5c1.221-2.5-1.3-5.266-3.294-4.864-2.478.5-5.1.33-7.432 1.175-2.966 1.073-6.1 1.192-9.1 1.778-3.47.676-6.956 1.558-10.525 1.981-2.164.256-4.624.351-6.614 1.211-2.881 1.245-5.975 1.253-8.885 1.832s-5.812 2.075-8.956 1.49a1.318 1.318 0 00-.726.257c-2.683 1.468-5.793 1.321-8.644 1.856-3.413.639-6.858 1.435-10.308 1.993-2.336.378-4.844.409-7.048 1.232-3.277 1.224-6.757 1.334-10.084 1.871-3.025.488-5.962 2.008-9.164 1.463-.272-.046-.6.216-.9.34-2.829 1.177-5.912 1.305-8.857 1.839-3.16.573-6.419 1.053-9.525 1.717-5.614 1.2-11.3 2.034-16.9 3.373-3.927.94-7.968 1.49-11.881 2.561a2.375 2.375 0 00-1.884 2.644 2.437 2.437 0 002.368 2.11c3.738.461 7.081-1.764 10.772-1.343.218.025.459-.221.7-.312 3.043-1.146 6.327-1.059 9.455-1.886 3.226-.852 6.607-1.1 9.9-1.721 3.685-.695 7.324-1.659 11.026-2.229 2.676-.411 5.312-1.059 7.983-1.492 3.788-.614 7.485-1.886 11.373-2.12a2.376 2.376 0 00.925-.248c2.885-1.5 6.172-1.426 9.223-1.92 3.617-.586 7.289-1.175 10.865-1.884 5.307-1.053 10.712-1.719 15.923-3.29 1.157-.349 2.614.11 3.659-.384 2.893-1.369 6.1-1.343 9.085-1.884s5.957-2.044 9.169-1.463c.33.059.729-.234 1.089-.382 2.894-1.191 6.056-1.215 9.063-1.757 3.427-.618 6.881-1.351 10.308-1.968 2.374-.427 2.1.363 2.3 1.834.384 2.762-1.164 5.15-1.283 7.866-.172 3.943-1.995 7.6-3.1 11.375-.721 2.458-2.112 4.828-2.925 7.259-1.68 5.025-4.876 9.147-7.223 13.756-1.985 3.9-5.4 6.615-7.98 10.025a67.9 67.9 0 01-12.193 11.858c-4.874 3.88-10.04 7.659-15.993 9.909-3.663 1.384-6.954 3.6-10.894 4.431a18.28 18.28 0 00-4.533 1.4 15.585 15.585 0 01-6.044 1.819c-5.66.256-11.167 2.113-16.908 1.426a65.2 65.2 0 00-7.082-.051 41.4 41.4 0 01-8.165-.688c-4.2-.875-8.407-1.767-12.52-2.95a74.528 74.528 0 01-10.805-4.054 70.547 70.547 0 01-7.89-3.968 113.969 113.969 0 01-14.126-10.325c-5.292-4.581-10.238-9.443-14.1-15.334a54.878 54.878 0 00-3.738-4.956 2.04 2.04 0 00-2.984-.264 2.508 2.508 0 00-1.009 2.98c1.026 2.764 2.967 4.854 4.659 7.123 3.305 4.431 6.661 8.823 11.04 12.309 3.193 2.542 6.127 5.441 9.478 7.743 5.779 3.971 11.688 7.737 18.3 10.324 2.719 1.063 5.462 2.27 8.209 3.074a114.6 114.6 0 0012.56 3.024c5.673.981 11.387 1.235 16.004 1.917zM98.877 7.593v-.262c.525 0 1.05.02 1.575 0 4.792-.21 9.446.867 14.158 1.44a49.07 49.07 0 017.1 1.663c3.773 1.042 7.4 2.867 11.112 4.1 4.2 1.39 7.651 3.92 11.513 5.777 4.224 2.031 7.619 5.256 11.261 8.16 5.991 4.776 10.824 10.6 15.728 16.35 2.139 2.51 3.419 5.713 5.6 8.263.966 1.131 2.049 1.55 3.361.587 1.391-1.02 1.944-2.213.813-3.805-.9-1.261-1.725-2.572-2.586-3.858-4.723-7.055-9.89-13.753-16.266-19.408-3.137-2.782-6.212-5.7-9.855-7.82-4.865-2.824-9.375-6.285-14.774-8.179-2.267-.8-4.344-2.151-6.626-2.882-3.475-1.113-7.117-1.719-10.572-2.882-3.852-1.3-7.875-1.466-11.806-2.2-2.086-.39-4.265-.135-6.387-.782a13.147 13.147 0 00-6.606-.4c-7.273 1.621-14.828 1.367-22.022 3.666-4.063 1.3-8.324 2.123-12.193 3.91a88.327 88.327 0 00-13.572 7.244c-3.276 2.272-6.795 4.177-9.929 6.68a82.64 82.64 0 00-13.773 13.6c-1.87 2.39-4.232 4.514-5.611 7.179-2.038 3.937-4.98 7.324-6.63 11.481-1.3 3.282-3.116 6.387-4.157 9.739-1.047 3.371-2.3 6.683-3.058 10.168-.963 4.419-2.16 8.77-2.156 13.34a31.212 31.212 0 01-.27 3.52c-.279 2.462-.626 4.917-.886 7.381a4.641 4.641 0 001.609 3.785c1.071.921 2.531-.1 3.619-1.005a48.282 48.282 0 0114.906-9c3.535-1.245 6.935-2.244 10.7-2.034a3.423 3.423 0 013.5 2.9 14.5 14.5 0 01.144 5.089c-.321 3.159-1.736 6.039-2.443 9.07a40.443 40.443 0 01-3.241 8.378c-2.436 5.036-6.157 9.227-10.076 13.219a9.36 9.36 0 01-2.951 1.82c-1.572.728-3.487-.47-3.086-2.022.54-2.094.307-4.317 1.109-6.293 1.085-2.673 2.039-5.385 3.364-7.993 1.978-3.893 3.841-7.85 5.88-11.721.548-1.039 1.128-2.459.128-3.488a2.62 2.62 0 00-3.1-.289c-.916.428-.722 1.327-1.081 1.977a118.194 118.194 0 00-8.3 17.476 29.66 29.66 0 00-2.033 12.11 4.684 4.684 0 003.327 4.315c3.918 1.553 6.926.138 9.8-2.525a55 55 0 009.963-12.828 45.1 45.1 0 005.313-12.707c.907-4.02 2.685-7.822 2.309-12.114a11.327 11.327 0 00-2.828-6.645c-1.461-1.657-3.662-2.083-5.784-2.417a19.354 19.354 0 00-9.839 1.357c-1.644.622-3.448.785-5.047 1.755-2.508 1.521-5.1 2.916-7.631 4.422-1.58.941-2.293.526-2.322-1.343-.075-4.666.912-9.277 1.858-13.746a82.379 82.379 0 014.172-13.1 119.685 119.685 0 016.839-14.393c3.509-6.28 8.431-11.476 13.384-16.55a90.268 90.268 0 0117.552-14.131c3.5-2.137 7.3-3.657 10.8-5.781a17.283 17.283 0 015.781-2.427c3.8-.656 7.377-2.044 11.119-2.875s7.517-1.262 11.263-1.918c2.87-.5 5.89-.098 8.837-.098zM47.098 124.947c4.252-1 8.585-1.964 12.975-2.64.22-.034.568-.209.593-.361.075-.466-.349-.424-.654-.479-2.43-.435-4.654-1.191-6.135-3.4-.615-.917-1.221-.476-1.891.2-1.839 1.848-3.283 4.083-5.474 5.588-.233.16-.515.537-.472.753.112.543.637.227 1.062.338zm19.469-3.831c3.63-1.152 8.047-1.285 12.306-2.3.3-.073.751-.093.721-.495-.043-.583-.585-.4-.914-.372-3.055.232-5.881-.109-7.895-2.822-.345-.465-.781-.421-.975.241a7.77 7.77 0 01-4.195 4.681c-.363.193-1.021.3-.724.93.21.435.705.141 1.68.137zM52.934 90.668c0-1.934-.031-1.97-1.934-1.973-1.938 0-2.992 1.229-3.005 3.407-.009 1.5 1.1 1.853 2.155 1.934 1.407.109 2.784-1.699 2.788-3.369z"/><path data-name="Контур 323" d="M112.737 18.223c8.655-.132 16.02 1.714 22.258 6.952a24.1 24.1 0 016.586 8.59c1.937 4.3 3.522 8.665 3.19 13.511-.088 1.291-.422 2.348-1.669 2.836-1.335.523-1.248 1.456-.978 2.561.34 1.39 1.4 2.446 1.542 3.975.2 2.216-.522 3.933-2.648 4.536-1.152.327-1.052.944-.978 1.734.3 3.236-1.825 5.174-5.058 4.562a26.763 26.763 0 01-11.314-5.342c-9.771-7.478-16.544-17.5-23.234-27.58-1.411-2.125-.9-4.132 1.3-5.749 1.144-.841 1.207-1.44-.15-2.053a4.18 4.18 0 01-2.412-4.322c.2-1.948 2.061-3.151 3.927-3.3 3.437-.274 6.8-1.465 9.638-.911zm.057 1.638c-3.106.478-6.824-.494-10.622.955-2.519.961-1.006 2.193-1.164 3.292-.2 1.41.753 1.538 1.958 1.714 2.659.389 4.946-1.1 7.494-1.168a35 35 0 0114.505 2.281 22.068 22.068 0 019.1 6.968c1.839 2.326 2.257 5.23 3.721 7.682a1.757 1.757 0 01-.41 2.177c-.657.592-1.162-.069-1.745-.314-1.694-.712-1.781-2.662-2.978-3.731-4.249-3.8-8.45-7.476-14.262-9.039-3.553-.956-7.144-1.408-10.7-2.149-1.61-.335-2.8.958-4.293 1.162-2.511.344-3.239 2.194-1.821 4.345 2.858 4.337 5.688 8.681 8.888 12.793a75.181 75.181 0 0014.602 14.878 37.237 37.237 0 009.409 4.562c2.779 1.031 4.8-.737 4.361-3.594-.185-1.2-.356-2.315 1.589-2.322 1.554-.006 3-2.425 2.177-3.823-.7-1.2-.82-2.646-1.872-3.694-.917-.915-.45-3.2.539-3.433 2.533-.608 3.137-1.711 2.3-4.117a5.825 5.825 0 01-.455-1.9c.047-3.763-1.519-7.177-3.09-10.315a20.873 20.873 0 00-6.5-7.614c-4.591-3.274-9.466-5.564-15.212-5.6-1.635-.004-3.275.004-5.523.004zm-.4 6.514a16.228 16.228 0 00-4.591.251c-.56.12-1.585-.258-1.515.669.047.617 1.005.325 1.533.3a30.96 30.96 0 0115.329 3.4 33.943 33.943 0 0111.107 8.869c.277.335.5.943 1.028.742.6-.227.271-.78.118-1.173a18.87 18.87 0 00-6.818-9.115c-4.807-3.291-10.277-3.901-16.187-3.942z"/><path data-name="Контур 324" d="M50.499 65.275a23.7 23.7 0 012.74-9.642c.721-1.288.472-1.769-1.116-1.927a3.934 3.934 0 01-3.206-5.523c3.909-8.39 8.571-16.289 15.428-22.66 3.947-3.667 8.526-6.37 13.97-6.8 5.958-.475 11.077 1.833 15.247 6.055a3.194 3.194 0 01.253 4.595c-.5.6-.987 1.354-.634 1.946 1.7 2.853-.5 4.658-1.767 6.58a341.821 341.821 0 01-20.861 28.346 37.892 37.892 0 01-6.467 6.3c-2.924 2.2-5.188 1.653-6.609-1.777-.494-1.192-1.035-1.411-2.156-1.163-3.151.689-5.025-1.021-4.822-4.33zM79.62 19.807c-3.535-.293-6.605 1.29-9.432 2.85-5.922 3.268-9.993 8.586-13.66 14.115a96.085 96.085 0 00-5.837 10.35c-1.808 3.637-1.109 4.689 2.965 5.007a1.629 1.629 0 011.534 2.486 52.753 52.753 0 00-2.625 6.43 14.2 14.2 0 00-.762 5.7c.013 1.681 1.829 2.323 3.282 1.638 2.15-1.013 2.075-3.228 2.445-4.821 1.214-5.235 3.9-9.555 7.216-13.589 3.795-4.612 8.844-7.56 14.017-10.3a1.921 1.921 0 012.367.259 1.5 1.5 0 01-.092 1.843c-2.305 2.46-3.985 5.383-6.033 8.033-2.839 3.672-5.472 7.5-8.583 10.967-2.162 2.412-4.507 4.63-6.757 6.948a2.842 2.842 0 00-.064 4.223c1.139 1.231 2.376.9 3.576-.18a60.025 60.025 0 008.971-9.376c2.609-3.616 5.59-6.964 8.2-10.581 3.336-4.631 6.376-9.475 9.716-14.1 1.48-2.051 2.9-3.908 1.89-6.627a2.075 2.075 0 01.64-2.168c1.867-1.474.932-2.788-.24-3.825a20.279 20.279 0 00-12.734-5.283zM58.577 65.036c.01.374-.184.84.229 1.068s.761-.095 1.045-.35a51.171 51.171 0 002.136-2.029c6.292-6.358 11.217-13.794 16.517-20.936.237-.32.578-.694.258-1.027-.461-.479-.967-.081-1.423.159a40.284 40.284 0 00-10.788 8.053 32.266 32.266 0 00-7.974 15.062z"/><path data-name="Контур 325" d="M111.333 176.965a4.581 4.581 0 01-3.721 4.58 3.533 3.533 0 01-3.489-2.059 12.767 12.767 0 01-1.6-4.949c-.586-5.231-1.218-10.454-1.636-15.706-.76-9.534-1.808-19.047-1.948-28.622-.039-2.671 1.58-4.726 3.736-4.854 1.843-.109 3.6 1.836 3.946 4.3.737 5.3.817 10.651 1.291 15.96.652 7.307.856 14.656 2.016 21.936.526 3.319.511 6.74 1.405 9.414zm-5.219-34.577c-.549-4.111-.337-8.243-.434-12.366-.055-2.347-1.058-3.161-3.427-3.059-2.1.09-2.312 1.575-2.485 3.228s.613 3.054.87 4.589c.935 5.6-.437 11.308 1.091 16.9 1.229 4.5-.069 9.243 1.145 13.863 1.045 3.975.273 8.281 1.625 12.3.5 1.484 2.033 2.352 4.143 1.858 1.48-.346 1.227-1.472 1.141-2.612a53.936 53.936 0 00-1.082-6.537c-.646-3.219-.013-6.654-.8-9.751-1.556-6.096-.087-12.397-1.787-18.413z"/><path data-name="Контур 326" d="M96.724 145.224c.509 8.245-.916 16.395-1.406 24.586a19.042 19.042 0 01-2.249 8.743c-1.386 2.312-3.6 3.4-5.474 2.435-2.178-1.128-2.774-3.5-1.548-6.043a4.1 4.1 0 00.577-1.646c-.03-4.25 1.323-8.321 1.392-12.592.132-8.2.685-16.4 1.092-24.593a4.475 4.475 0 013.734-3.693 4.315 4.315 0 013.859 3.763c.082 3.011.023 6.026.023 9.04zm-6.775 2.249c.847 6.614-1.217 14.446-1.321 22.392a17.494 17.494 0 01-1.6 6c-.467 1.168-.942 2 0 3.174 1.088 1.347 2.451.665 3.6.575.981-.077 1.586-1.165 1.688-2.292a5.005 5.005 0 01.238-1.341c1.406-3.642 1.537-7.535 2.032-11.323.447-3.419.144-6.935.2-10.408.092-5.644 1.388-11.211 1.072-16.882-.115-2.064-1.182-3.283-2.977-3.31s-2.916 1.257-2.929 3.384c-.016 2.885-.003 5.77-.003 10.031z"/><path data-name="Контур 327" d="M87.943 62.333c0-3.411-.081-6.824.033-10.231a4.52 4.52 0 012.9-4.264 3.333 3.333 0 014.03 1.028 6.288 6.288 0 011.354 4.943 98.072 98.072 0 00.035 18.966 4.9 4.9 0 01-.456 3.354c-.586.936-.776 1.794.923 1.486a3.461 3.461 0 013.522 5.045c-1.767 3.574-4.358 4.17-6.633 1.5-1.137-1.333-.625-2.476.1-3.739.37-.645 1.178-1.34.711-2.087-.19-.3-1.24-.213-1.853-.085-2.615.546-4.511-2.815-4.641-6.084s-.026-6.553-.025-9.832zm6.783.652h-.052c0-4-.072-8 .033-11.994.047-1.788-1.223-1.859-2.184-1.651s-2.823-1.024-2.766 1.493c.128 5.712-.911 11.4-.246 17.144.268 2.318.035 4.686.408 7.026a1.913 1.913 0 002.361 1.723c1.05-.122 2.568.116 2.489-1.945-.149-3.927-.043-7.864-.043-11.796zm2.444 15.934c-1.423-.034-2.947 1.71-2.747 3.722a2.105 2.105 0 002.04 2.182c1.076.017 3.437-2.632 3.284-3.886a2.2 2.2 0 00-2.577-2.018z"/><path data-name="Контур 328" d="M98.177 53.673c-.13-2.277-.335-4.553-.37-6.832a4.335 4.335 0 013.967-4.313c2.082-.143 3.662 1.261 3.935 3.737a71.394 71.394 0 01.745 9.521c-.12 4.87.823 9.6 1.269 14.4.13 1.4 1.642 2.591.53 4.2-1.028 1.486-1.961 3.093-4.122 2.652a5.019 5.019 0 01-3.893-3.986c-1.517-6.359-1.476-12.907-2.061-19.379zm1.6 2.813c.057 3.732-.33 6.942.851 9.981.9 2.316-.3 4.895 1.26 7.219.93 1.383 1.815 2.478 3.38 2.068 1.973-.517 2.332-2.228 1.626-3.932-1.923-4.638-.829-9.643-1.918-14.394-.836-3.645-.4-7.431-.477-11.158a2.466 2.466 0 00-2.293-2.659c-1.269.066-2.826.574-2.823 2.677.008 3.602.835 7.165.398 10.2z"/><path data-name="Контур 329" d="M113.016 94.033a19.857 19.857 0 01-5.717 11.764 2.9 2.9 0 01-3.2.964c-1.272-.537-.607-1.832-.762-2.8-.8-4.984 1.31-9.11 3.877-13.1 1.323-2.055 3.861-2.566 4.622-.88a28.442 28.442 0 011.18 4.052zm-1.834-.335c0-.134.019-.658 0-1.181-.032-.734-.106-1.5-.969-1.732a1.651 1.651 0 00-1.837.846 23.938 23.938 0 00-4.1 11.852c-.048.64-.068 1.392.712 1.656.726.246 1.25-.223 1.686-.737 2.527-2.989 4.681-6.144 4.508-10.704z"/><path data-name="Контур 330" d="M139.558 85.691a3.46 3.46 0 01-1.117 2.813c-1.873 1.945-3.8 3.842-5.614 5.842a2.166 2.166 0 01-2.469.565c-1.1-.293-1.053-1.179-1.034-2.047.064-3.113 3.855-8.2 6.8-9.123 2.098-.656 3.448.111 3.434 1.95zm-8.514 6.755c.029.175-.115.608.306.855a.7.7 0 00.889-.174 435.977 435.977 0 005.82-6.568.936.936 0 00-.1-1.262 1.03 1.03 0 00-1.076-.232c-2.718.596-5.782 4.359-5.839 7.382z"/><path data-name="Контур 331" d="M112.258 34.33a28.05 28.05 0 018.653 3.146 23.994 23.994 0 018.612 7.209c2.2 3.127 4.671 6.107 5.994 9.8a18.484 18.484 0 001.883 3.551 2.341 2.341 0 01.109 2.754c-.593.856-1.264-.022-1.9-.153-7.084-1.456-11.359-6.875-16.038-11.6a111.209 111.209 0 01-9.615-11.908 2.08 2.08 0 01-.295-2.017c.422-1.227 1.592-.447 2.597-.782zm-.76 1.41c.344.008-.107-.12-.15.295a1.669 1.669 0 00.348 1.057c1.607 2.144 3.194 4.307 4.889 6.381 4.969 6.083 10.009 12.1 17.43 15.425.593.266 1.148.859 1.756.3.539-.5.061-1.113-.18-1.618a68.855 68.855 0 00-6.074-10.7c-4.336-6.023-10.112-9.701-18.02-11.14z"/><path data-name="Контур 332" d="M56.566 47.438a2.54 2.54 0 01.324-1.1c1.626-1.9 2.39-4.43 3.883-6.24 2.5-3.024 4.544-6.418 7.458-9.131a21.154 21.154 0 0110.709-5.8c1.588-.281 3.448.387 5.053.978a34.313 34.313 0 013.965 2.314 1.347 1.347 0 01.7 1.629c-.076.5-.389.724-.933.814a62.111 62.111 0 00-18.809 8.067c-3.792 2.681-7.343 5.621-9.919 9.559a1.342 1.342 0 01-1.612.756c-.532-.151-.813-.762-.819-1.846zm23.732-20.706a9.871 9.871 0 00-4.393.719c-6.819 2.725-10.438 8.7-14.481 14.236-.3.415-.874 1.127-.33 1.569.57.463 1.054-.289 1.435-.668 6.494-6.471 14.535-10.059 23.2-12.5.367-.1.868-.031.939-.526.064-.446-.328-.715-.678-.878-1.945-.905-3.752-2.233-5.692-1.952z"/></g></svg>