<svg xmlns="http://www.w3.org/2000/svg" width="277.28" height="60.779"><g data-name="Сгруппировать 178"><g data-name="- S O U F L -"><g data-name="Сгруппировать 174" style="isolation:isolate" fill="#fff"><path data-name="Контур 364" d="M10.655 19.297v2.591H0v-2.591z"/><path data-name="Контур 365" d="M49.121 10.722h-2.8a6.587 6.587 0 00-2.4-5.116 9.427 9.427 0 00-6.008-1.762 9.147 9.147 0 00-5.562 1.486 4.932 4.932 0 00-2 4.2 5.743 5.743 0 00.234 1.72 2.878 2.878 0 00.849 1.295 10.95 10.95 0 001.146.913 6.638 6.638 0 001.719.721q1.189.363 1.911.553t2.293.53q1.7.384 2.76.637t2.42.681a14.33 14.33 0 012.186.848 13.892 13.892 0 011.719 1.063 4.875 4.875 0 011.359 1.4 8.471 8.471 0 01-.616 9.3 8.965 8.965 0 01-4.182 2.887 17.563 17.563 0 01-5.477.807q-5.647 0-8.852-2.76a9.5 9.5 0 01-3.206-7.6v-.255h2.76a7.564 7.564 0 002.526 6.2 10.675 10.675 0 006.984 2.079 10.188 10.188 0 006.156-1.655 5.376 5.376 0 002.25-4.586 4.278 4.278 0 00-2.144-4.053 35.067 35.067 0 00-8.088-2.611q-1.911-.425-2.823-.679a22.73 22.73 0 01-2.441-.892 5.826 5.826 0 01-3.609-3.4 6.947 6.947 0 01-.594-2.972 7.3 7.3 0 012.823-6.05 14.349 14.349 0 0115.56.127 8.948 8.948 0 013.147 6.944z"/><path data-name="Контур 366" d="M79.223 1.297a13.2 13.2 0 0110.3 4.416q3.97 4.415 3.97 11.506 0 7.048-3.948 11.4a13.321 13.321 0 01-10.359 4.352 13.115 13.115 0 01-10.274-4.373q-3.906-4.373-3.906-11.464t3.927-11.462a13.18 13.18 0 0110.29-4.375zm-.042 2.5a10.236 10.236 0 00-8.173 3.65 14.263 14.263 0 00-3.121 9.6q0 6.071 3.1 9.744a11.117 11.117 0 0016.494.02q3.121-3.649 3.121-9.636a14.425 14.425 0 00-3.142-9.68 10.338 10.338 0 00-8.28-3.693z"/><path data-name="Контур 367" d="M133.099 2.019v18.892q0 5.861-2.908 8.917t-8.724 3.057q-5.946 0-8.938-3.057t-2.993-9V2.019h2.888v18.086q0 5.222 1.973 7.79t7.113 2.57a11.484 11.484 0 004.373-.722 5.669 5.669 0 002.674-2.165 9.268 9.268 0 001.295-3.228 21.928 21.928 0 00.362-4.287V2.019z"/><path data-name="Контур 368" d="M169.951 2.019v2.463h-16.43v10.869h14.605v2.462h-14.605v14.435h-2.845V2.019z"/><path data-name="Контур 369" d="M252.445 29.786v2.463h-19.87V2.019h2.887v27.767z"/><path data-name="Контур 370" d="M277.276 19.297v2.591H266.62v-2.591z"/></g></g><g data-name="Сгруппировать 175"><path data-name="Контур 371" d="M207.876 20.318a13.224 13.224 0 01-4.189 7.728 12.151 12.151 0 01-8.265 2.8 12.314 12.314 0 01-9.708-4.134q-3.651-4.131-3.651-11.038t3.708-11.293a11.979 11.979 0 019.6-4.387q6.17 0 9.482 4.358a17.36 17.36 0 013.312 10.812v1.02h-22.474a13.863 13.863 0 002.463 8.406q2.462 3.368 7.387 3.368 7.189 0 8.888-7.643zm-3.283-7.019a12.008 12.008 0 00-2.774-7.613 8.444 8.444 0 00-6.567-2.746 8.052 8.052 0 00-6.707 2.886 14.645 14.645 0 00-2.86 7.472z" fill="#fff"/></g><g data-name="Сгруппировать 176"><path data-name="Контур 372" d="M220.849 20.318a13.223 13.223 0 01-4.189 7.728 12.151 12.151 0 01-8.265 2.8 12.314 12.314 0 01-9.708-4.134q-3.651-4.131-3.651-11.038t3.708-11.293a11.979 11.979 0 019.6-4.387q6.17 0 9.482 4.358a17.358 17.358 0 013.312 10.812v1.02h-22.474a13.864 13.864 0 002.462 8.406q2.462 3.368 7.387 3.368 7.189 0 8.888-7.643zm-3.283-7.019a12.006 12.006 0 00-2.774-7.613 8.444 8.444 0 00-6.567-2.746 8.053 8.053 0 00-6.707 2.886 14.644 14.644 0 00-2.86 7.472z" fill="#fff"/></g><g data-name="Сгруппировать 177" style="isolation:isolate" fill="#fff"><path data-name="Контур 373" d="M106.141 50.476v7.344q0 2.96-2.846 2.959a2.818 2.818 0 01-2.215-.778 3.394 3.394 0 01-.686-2.307q0-.2.014-.4h.92v.3a3.223 3.223 0 00.4 1.8 1.767 1.767 0 001.564.594 1.641 1.641 0 001.516-.621 3.482 3.482 0 00.381-1.8v-7.09z"/><path data-name="Контур 374" d="M115.14 50.476v.821h-6.028v3.637h5.646v.807h-5.646v3.99h6.084v.822h-7.048V50.476z"/><path data-name="Контур 375" d="M128.316 50.476l-2.788 10.076h-1.029l-2.052-7.09q-.4-1.4-.51-2.082c-.075.245-.172.6-.29 1.063s-.205.793-.262.991l-2.01 7.119h-1.047l-2.788-10.076h1l1.882 6.991q.184.694.467 2.08a19.85 19.85 0 01.51-2.08l2-6.991h1.09l2.038 7.09a16.623 16.623 0 01.481 1.981q.057-.226.205-.913t.248-1.054l1.9-7.1z"/><path data-name="Контур 376" d="M136.369 50.476v.821h-6.029v3.637h5.647v.807h-5.647v3.99h6.086v.822h-7.048V50.476z"/><path data-name="Контур 377" d="M144.407 59.73v.822h-6.625V50.476h.962v9.254z"/><path data-name="Контур 378" d="M152.007 59.73v.822h-6.623V50.476h.961v9.254z"/><path data-name="Контур 379" d="M159.959 50.476v.821h-6.028v3.637h5.646v.807h-5.646v3.99h6.084v.822h-7.047V50.476z"/><path data-name="Контур 380" d="M161.36 50.476h4.557a3.6 3.6 0 012.287.672 2.442 2.442 0 01.855 2.045 2.509 2.509 0 01-.515 1.62 2.568 2.568 0 01-1.452.87 1.988 1.988 0 011.309.7 3.006 3.006 0 01.46 1.577c0 .02 0 .147.014.383s.021.439.035.607.038.374.072.61a2.982 2.982 0 00.14.609 1.051 1.051 0 00.219.382h-1.09a1.162 1.162 0 01-.184-.552c-.038-.264-.065-.6-.085-1.019s-.027-.637-.027-.666a2.5 2.5 0 00-.666-1.819 3.357 3.357 0 00-2.01-.446h-2.958v4.5h-.962zm.962.821v3.991h2.845a6.9 6.9 0 001.075-.072 3.726 3.726 0 00.913-.268 1.457 1.457 0 00.708-.63 2.12 2.12 0 00.248-1.07q0-1.951-2.505-1.952z"/><path data-name="Контур 381" d="M178.584 50.476l-3.991 5.914v4.162h-.948v-4.158l-4.005-5.914h1.146l2.817 4.217.551.892a9.218 9.218 0 01.51-.849l2.83-4.26z"/></g></g></svg>