<svg xmlns="http://www.w3.org/2000/svg" width="296.622" height="52.485"><g data-name="Сгруппировать 180" fill="#fff"><path data-name="Контур 386" d="M0 .987A76.719 76.719 0 0112.7 0c6.541 0 11.336 1.519 14.377 4.258a13.785 13.785 0 014.487 10.723c0 4.639-1.369 8.29-3.956 10.953-3.5 3.728-9.2 5.63-15.67 5.63a22.792 22.792 0 01-5.326-.456v20.537H-.005zM6.617 25.71a22.2 22.2 0 005.478.533c7.986 0 12.855-3.88 12.855-10.955 0-6.769-4.791-10.04-12.094-10.04a27.777 27.777 0 00-6.238.533z"/><path data-name="Контур 387" d="M42.072 34.454c.152 9.051 5.932 12.779 12.627 12.779a24.2 24.2 0 0010.192-1.9l1.141 4.793a29.82 29.82 0 01-12.247 2.28c-11.336 0-18.1-7.454-18.1-18.559s6.543-19.854 17.268-19.854c12.018 0 15.214 10.573 15.214 17.344a25.293 25.293 0 01-.228 3.119zm19.624-4.793c.078-4.26-1.748-10.879-9.279-10.879-6.771 0-9.738 6.238-10.271 10.879z"/><path data-name="Контур 388" d="M76.456 26.319c0-4.336-.074-8.064-.3-11.486h5.856l.228 7.225h.3c1.674-4.943 5.706-8.062 10.192-8.062a7.23 7.23 0 011.9.228v6.312a10.158 10.158 0 00-2.28-.228c-4.717 0-8.064 3.576-8.977 8.6a18.843 18.843 0 00-.3 3.119v19.624h-6.619z"/><path data-name="Контур 389" d="M100.423 44.803a17.537 17.537 0 008.823 2.661c4.869 0 7.151-2.432 7.151-5.476 0-3.2-1.9-4.945-6.847-6.769-6.617-2.361-9.738-6.01-9.738-10.423 0-5.934 4.793-10.8 12.705-10.8a18.376 18.376 0 019.051 2.282l-1.674 4.867a14.324 14.324 0 00-7.53-2.128c-3.956 0-6.162 2.28-6.162 5.019 0 3.043 2.206 4.413 7 6.238 6.388 2.434 9.66 5.628 9.66 11.105 0 6.467-5.021 11.029-13.768 11.029a20.961 20.961 0 01-10.345-2.511z"/><path data-name="Контур 390" d="M164.779 32.935c0 13.618-9.432 19.55-18.333 19.55-9.964 0-17.648-7.3-17.648-18.939 0-12.323 8.064-19.55 18.257-19.55 10.575 0 17.724 7.682 17.724 18.939zm-29.21.383c0 8.062 4.641 14.146 11.181 14.146 6.391 0 11.183-6.008 11.183-14.3 0-6.236-3.119-14.146-11.031-14.146s-11.333 7.301-11.333 14.3z"/><path data-name="Контур 391" d="M173.228 24.797c0-3.8-.076-6.921-.3-9.964h5.933l.378 6.084h.154a13.539 13.539 0 0112.17-6.921c5.1 0 13.007 3.043 13.007 15.67v21.982h-6.695V30.427c0-5.934-2.206-10.877-8.519-10.877a9.815 9.815 0 00-9.432 9.964v22.134h-6.695z"/><path data-name="Контур 392" d="M235.841 51.648l-.533-4.639h-.228a13.718 13.718 0 01-11.258 5.475c-7.456 0-11.26-5.247-11.26-10.573 0-8.9 7.912-13.768 22.137-13.692v-.761c0-3.043-.837-8.521-8.369-8.521a18.345 18.345 0 00-9.584 2.739l-1.522-4.413a22.85 22.85 0 0112.094-3.269c11.26 0 14 7.682 14 15.061v13.768a51.586 51.586 0 00.611 8.823zm-.989-18.789c-7.3-.15-15.594 1.141-15.594 8.293 0 4.336 2.891 6.391 6.312 6.391a9.161 9.161 0 008.9-6.162 6.989 6.989 0 00.38-2.13z"/><path data-name="Контур 393" d="M295.635 7.834h-18.867l-1.9 12.7a26.711 26.711 0 014.032-.3 20.9 20.9 0 0110.649 2.663 14.094 14.094 0 017.075 12.7c0 9.662-7.684 16.887-18.409 16.887-5.4 0-9.966-1.519-12.325-3.041l1.674-5.1a22.144 22.144 0 0010.571 2.743c6.314 0 11.714-4.108 11.714-10.725-.076-6.391-4.334-10.955-14.224-10.955a51.155 51.155 0 00-6.847.533l3.2-23.732h23.657z"/></g></svg>