<svg xmlns="http://www.w3.org/2000/svg" width="159.751" height="63.476"><g data-name="Сгруппировать 154" fill="#fff"><path data-name="Контур 267" d="M25.979 0h-8.512C9.107 0 2.014 6.366 2.014 18.723c0 7.414 3.436 12.88 9.555 15.576L.149 54.969c-.373.674 0 1.2.6 1.2h5.3a.846.846 0 00.9-.523l10.377-20.295h3.727V55.64a.56.56 0 00.521.523h4.631c.447 0 .6-.224.6-.6V.75c-.004-.525-.303-.75-.826-.75zm-4.926 30.556h-3.137c-4.927 0-9.705-3.595-9.705-12.582 0-9.362 4.479-13.181 9.033-13.181h3.809z"/><path data-name="Контур 268" d="M54.04 18.62h-4.628a.577.577 0 00-.6.523v14.3h-8.587V19.14c0-.374-.148-.523-.521-.523h-4.63a.531.531 0 00-.6.523v36.4c0 .373.149.6.52.6h4.705a.532.532 0 00.521-.6V38.166h8.587V55.54a.55.55 0 00.6.6h4.628a.53.53 0 00.523-.6v-36.4a.511.511 0 00-.518-.52z"/><path data-name="Контур 269" d="M159.724 53.74l-.6-2.547c-.072-.224-.146-.3-.371-.3a21.7 21.7 0 01-5.3.822c-5.674 0-8.438-5.465-8.438-14.152 0-7.64 2.316-15.2 6.2-15.2 1.047 0 2.317.3 4.33 2.173a.773.773 0 00.6.3c.225 0 .447-.152.672-.526l2.017-3.293a1.228 1.228 0 00.223-.677c0-.3-.3-.523-.746-.747a14.323 14.323 0 00-6.943-1.872c-7.02 0-12.469 8.387-12.469 21.491 0 11.309 5.226 17.824 12.691 17.824a15.346 15.346 0 007.84-2.472.748.748 0 00.294-.824z"/><path data-name="Контур 270" d="M127.279 35.54l8.957-16.4c.15-.225.074-.523-.225-.523h-4.4a2 2 0 00-2.162 1.421l-6.723 14.005a3.514 3.514 0 01-1.117 1.574V19.14c0-.3-.15-.523-.449-.523h-4.852a.5.5 0 00-.449.523v36.472a.5.5 0 00.449.523h4.845c.3 0 .449-.225.449-.523v-18.8a1.62 1.62 0 01.521.675l8.51 17.523a2 2 0 002.095 1.13h4.777c.3 0 .373-.3.225-.523z"/><path data-name="Контур 271" d="M84.501 51.42h-.9c-1.12 0-1.419-.448-1.419-1.346V19.14c0-.374-.149-.523-.448-.523h-14.93a.532.532 0 00-.6.523v2.7c0 9.062-.523 20.744-5.3 29.582H59.26c-.448 0-.6.227-.6.6v10.934a.506.506 0 00.523.522h3.586a1.052 1.052 0 001.117-1.123V56.14h15.978v6.816a.509.509 0 00.522.522h3.809c.445 0 .893-.373.893-1.123V52.02a.551.551 0 00-.587-.6zm-8.064 0H65.613c3.808-6.514 5.3-13.853 5.822-22.84a75.22 75.22 0 00.225-5.243h4.777z"/><path data-name="Контур 272" d="M99.73 17.721c-8.061 0-11.647 10.184-11.647 21.267 0 11.309 5.077 18.048 12.543 18.048a16.63 16.63 0 008.51-2.472.524.524 0 00.3-.672l-.6-2.547a.521.521 0 00-.6-.448 22.19 22.19 0 01-5.524.822c-5.749 0-8.435-5.016-8.435-11.606V38.34s2.91.349 4.629.349h10.9V35.54c.002-11.6-4.105-17.819-10.076-17.819zm-.82 16.251c-1.719 0-4.4.3-4.4.3a21.346 21.346 0 01.149-2.323c.67-6.366 2.238-9.584 4.852-9.584 2.39 0 3.882 3.294 4.255 9.061.074 1.2.074 2.547.074 2.547z"/></g></svg>