<svg xmlns="http://www.w3.org/2000/svg" width="277.036" height="69.07"><g data-name="Сгруппировать 173" transform="translate(-761.5 -51)" fill="#fff"><circle data-name="Эллипс 6" cx="34.035" cy="34.035" r="34.035" transform="translate(762 51.5)" stroke="#fff" stroke-miterlimit="10"/><g data-name="Сгруппировать 172"><path data-name="Контур 357" d="M852.874 63.481a67.61 67.61 0 0111.03-.759c5.014 0 8.638.974 11.059 2.921a10.459 10.459 0 013.831 8.358 11.388 11.388 0 01-3.3 8.556c-2.791 2.621-6.954 3.833-11.738 3.833a19.047 19.047 0 01-2.787-.187v12.94h-8.1zm8.1 16.39a12.258 12.258 0 002.712.219c4.342 0 7.02-2.2 7.02-5.86 0-3.325-2.276-5.3-6.4-5.3a16.012 16.012 0 00-3.335.27z"/><path data-name="Контур 358" d="M883.64 61.073h8.171v38.068h-8.171z"/><path data-name="Контур 359" d="M913.327 99.141l-.479-2.606h-.172a9.416 9.416 0 01-7.494 3.2c-5.343 0-8.481-3.837-8.481-8.028 0-6.837 6.114-10.077 15.4-10.064v-.336c0-1.4-.753-3.387-4.807-3.378a15.071 15.071 0 00-7.232 1.959l-1.5-5.224a21.238 21.238 0 0110.2-2.351c8.736 0 11.5 5.165 11.5 11.325v9.152a38.21 38.21 0 00.417 6.356zm-.989-12.412c-4.291-.021-7.609 1.015-7.609 4.14a2.94 2.94 0 003.238 3.14 4.462 4.462 0 004.222-3.012 5.188 5.188 0 00.149-1.393z"/><path data-name="Контур 360" d="M932.174 72.902l3.922 12.9c.445 1.538.955 3.5 1.306 4.873h.17c.366-1.415.783-3.363 1.166-4.886l3.236-12.887h8.7l-6.082 17.273c-3.767 10.421-6.279 14.582-9.243 17.2a14.511 14.511 0 01-7.856 3.593l-1.748-6.879a11.881 11.881 0 003.55-1.389 9.26 9.26 0 003.363-3.27 2.256 2.256 0 00.457-1.174 3.228 3.228 0 00-.364-1.349l-9.609-24.005z"/><path data-name="Контур 361" d="M970.148 69.864h-9.753v-6.862h27.815v6.862h-9.891v29.277h-8.171z"/><path data-name="Контур 362" d="M994.22 88.642c.243 3.389 3.589 4.995 7.4 4.995a21.852 21.852 0 007.222-1.113l1.1 5.522a25.473 25.473 0 01-9.506 1.659c-8.892 0-13.995-5.178-13.995-13.355 0-6.671 4.157-14.042 13.225-14.042 8.509 0 11.719 6.611 11.719 13.1a15.716 15.716 0 01-.292 3.229zm9.577-5.588c.015-1.963-.862-5.316-4.576-5.316-3.446 0-4.844 3.146-5.069 5.316z"/><path data-name="Контур 363" d="M1031.191 99.141l-.481-2.606h-.174a9.422 9.422 0 01-7.494 3.2c-5.344 0-8.483-3.837-8.483-8.028 0-6.837 6.116-10.077 15.4-10.064v-.336c0-1.4-.751-3.387-4.807-3.378a15.062 15.062 0 00-7.23 1.959l-1.5-5.224a21.224 21.224 0 0110.2-2.351c8.736 0 11.5 5.165 11.5 11.325v9.152a38.224 38.224 0 00.417 6.356zm-.989-12.412c-4.292-.021-7.609 1.015-7.609 4.14a2.939 2.939 0 003.237 3.14 4.46 4.46 0 004.223-3.012 5.1 5.1 0 00.151-1.393z"/></g></g></svg>